<?xml version="1.0" standalone="no"?>
<!DOCTYPE svg PUBLIC "-//W3C//DTD SVG 1.1//EN" "http://www.w3.org/Graphics/SVG/1.1/DTD/svg11.dtd" >
<svg xmlns="http://www.w3.org/2000/svg" xmlns:xlink="http://www.w3.org/1999/xlink" version="1.1">
<metadata>
Created by FontForge 20190801 at Mon Sep 27 01:23:45 2004
 By Jimmy Wärting
Copyright (c) Boutros International, 2004. All rights reserved.
</metadata>
<defs>
<font id="GESSTextMedium-Medium" horiz-adv-x="0" >
  <font-face 
    font-family="GE SS Text Medium"
    font-weight="500"
    font-stretch="normal"
    units-per-em="1000"
    panose-1="2 10 5 3 2 1 2 2 2 4"
    ascent="800"
    descent="-200"
    bbox="-114 -393 1280 989"
    underline-thickness="50"
    underline-position="-100"
    unicode-range="U+0020-FEFF"
  />
<missing-glyph horiz-adv-x="500" 
d="M63 0h375v750h-375v-750zM125 63v625h250v-625h-250z" />
    <glyph glyph-name="shaddakasraarabic" unicode="&#x650;&#x651;" arabic-form="isolated" 
d="M221 828h-42v-69c0 -13 -5 -18 -14 -15c-13 3 -19 12 -19 29v55h-42v-55c0 -17 -6 -26 -19 -29c-9 -3 -14 2 -14 15v69h-42v-78c0 -31 16 -47 49 -47c17 0 29 4 37 13c2 3 6 10 11 21c10 -24 25 -36 46 -36c33 -1 49 16 49 49v78zM235 677l-164 -4
c-25 -3 -43 -14 -53 -34h156c36 1 56 13 61 38z" />
    <glyph glyph-name="shaddakasratanarabic" unicode="&#x64d;&#x651;" arabic-form="isolated" 
d="M211 926h-40v-70c0 -12 -5 -17 -16 -14c-12 3 -18 12 -18 29v55h-42v-55c0 -17 -6 -26 -18 -29c-11 -3 -16 2 -16 14v70h-40v-78c0 -31 16 -47 49 -47c16 0 28 4 36 13c2 2 5 9 10 20c11 -23 27 -35 47 -36c32 -1 48 16 48 50v78zM229 771l-164 -4
c-25 -3 -42 -14 -53 -34h157c35 1 55 13 60 38zM205 705l-165 -3c-25 -3 -42 -15 -52 -35h156c35 1 56 14 61 38z" />
    <glyph glyph-name="shaddafathaarabic" unicode="&#x64e;&#x651;" arabic-form="isolated" 
d="M218 896l-165 -3c-25 -3 -42 -14 -52 -34h157c35 1 55 13 60 37zM199 814h-40v-70c0 -12 -5 -17 -16 -14c-12 3 -18 12 -18 29v55h-42v-55c0 -17 -6 -26 -18 -29c-11 -3 -16 2 -16 14v70h-40v-78c0 -31 16 -47 49 -47c16 0 28 4 36 13c2 2 5 9 10 20
c11 -23 26 -35 47 -36c32 -1 48 16 48 50v78z" />
    <glyph glyph-name="shaddadammaarabicX" unicode="&#x64f;&#x651;" arabic-form="isolated" 
d="M197 934c0 28 -24 55 -52 55c-10 0 -20 -3 -29 -9c-17 -11 -25 -27 -25 -49c0 -15 5 -28 14 -39c-18 -10 -52 -11 -102 -2c9 -24 14 -36 15 -36c14 -2 29 -3 45 -3c87 0 134 35 134 83zM199 814h-40v-70c0 -12 -5 -17 -16 -14c-12 3 -18 12 -18 29v55h-42v-55
c0 -17 -6 -26 -18 -29c-11 -3 -16 2 -16 14v70h-40v-78c0 -31 16 -47 49 -47c16 0 28 4 36 13c2 2 5 9 10 20c11 -23 27 -35 47 -36c32 -1 48 16 48 50v78zM148 954c13 0 20 -6 20 -19s-11 -24 -34 -32c-7 10 -11 20 -11 30c0 9 4 15 12 19c4 1 8 2 13 2z" />
    <glyph glyph-name="lamalefhamzaaboveisolatedarabi" unicode="&#xfedf;&#xfe84;" horiz-adv-x="449" arabic-form="isolated" 
d="M231 708v49h-33c-25 0 -38 9 -38 27c0 15 6 23 18 23c10 0 19 -4 27 -13l24 37c-15 19 -32 28 -53 28c-37 0 -66 -31 -66 -71c0 -12 3 -22 9 -31h-43l-23 -49h178zM222 201l-5 446h-105l5 -484c37 3 85 13 105 38zM419 196l-6 451h-107c4 -267 6 -401 6 -404
c0 -53 -24 -93 -71 -118c-35 -19 -75 -28 -122 -28h-44v-97h85c76 0 138 18 186 54c49 37 73 84 73 142z" />
    <glyph glyph-name="lamalefmaddaabovefinalarabic" unicode="&#xfee0;&#xfe82;" horiz-adv-x="539" arabic-form="final" 
d="M271 795h-39c-2 -23 -15 -35 -39 -35c-8 0 -24 5 -49 14c-24 9 -44 14 -59 14c-39 0 -66 -35 -71 -80h36c4 23 16 34 35 34c10 0 27 -5 51 -14s43 -13 57 -13c22 0 40 8 55 25c13 13 20 32 23 55zM553 0v97h-88c-21 0 -40 9 -59 28c-23 23 -34 51 -34 84l-6 438h-107
c4 -267 6 -401 6 -404c0 -53 -24 -93 -71 -118c-35 -19 -75 -28 -122 -28h-44v-97h85c107 0 183 33 228 98c8 -26 23 -48 45 -67c24 -21 50 -31 78 -31h89zM175 201l-5 446h-105l5 -484c37 3 85 13 105 38z" />
    <glyph glyph-name="shaddadammatanarabic" unicode="&#x64c;&#x651;" arabic-form="isolated" 
d="M200 925c0 28 -25 54 -53 54c-9 0 -19 -3 -28 -8c-17 -11 -25 -28 -25 -49c0 -15 5 -28 14 -39c-16 -7 -35 -9 -58 -8c20 12 30 30 30 54c0 27 -12 44 -36 52c-5 2 -10 3 -15 3c-21 0 -37 -13 -49 -38c12 11 24 16 36 16c6 0 12 -2 17 -7c9 -7 13 -15 13 -24
c0 -17 -13 -35 -39 -55c8 -20 13 -30 14 -31c13 -2 28 -3 45 -3c87 0 134 35 134 83zM197 803h-41l1 -69c0 -13 -5 -17 -16 -14c-12 3 -18 12 -18 29v54h-42v-54c0 -17 -6 -26 -18 -29c-11 -3 -16 1 -16 14v69h-40v-77c0 -32 16 -48 49 -48c16 0 28 4 36 13c2 3 6 10 11 21
c10 -23 25 -35 46 -36c32 -1 48 16 48 50v77zM150 946c13 0 20 -7 20 -20c0 -14 -11 -24 -34 -31c-7 9 -11 19 -11 28s4 15 12 19c5 3 9 4 13 4z" />
    <glyph glyph-name="lamalefisolatedarabic" unicode="&#xfedf;&#xfe8e;" horiz-adv-x="449" arabic-form="isolated" 
d="M222 201l-5 446h-105l5 -484c37 3 85 13 105 38zM419 196l-6 451h-107c4 -267 6 -401 6 -404c0 -53 -24 -93 -71 -118c-35 -19 -75 -28 -122 -28h-44v-97h85c76 0 138 18 186 54c49 37 73 84 73 142z" />
    <glyph glyph-name="lamaleffinalarabic" unicode="&#xfee0;&#xfe8e;" horiz-adv-x="539" arabic-form="final" 
d="M553 0v97h-88c-21 0 -40 9 -59 28c-23 23 -34 51 -34 84l-6 438h-107c4 -267 6 -401 6 -404c0 -53 -24 -93 -71 -118c-35 -19 -75 -28 -122 -28h-44v-97h85c107 0 183 33 228 98c8 -26 23 -48 45 -67c24 -21 50 -31 78 -31h89zM175 201l-5 446h-105l5 -484
c37 3 85 13 105 38z" />
    <glyph glyph-name="lamalefhamzaabovefinalarabicX" unicode="&#xfee0;&#xfe84;" horiz-adv-x="539" arabic-form="final" 
d="M186 708v49h-33c-25 0 -38 9 -38 27c0 15 6 23 18 23c10 0 19 -4 27 -13l24 37c-15 19 -32 28 -53 28c-37 0 -66 -31 -66 -71c0 -12 3 -22 9 -31h-43l-23 -49h178zM553 0v97h-88c-21 0 -40 9 -59 28c-23 23 -34 51 -34 84l-6 438h-107c4 -267 6 -401 6 -404
c0 -53 -24 -93 -71 -118c-35 -19 -75 -28 -122 -28h-44v-97h85c107 0 183 33 228 98c8 -26 23 -48 45 -67c24 -21 50 -31 78 -31h89zM175 201l-5 446h-105l5 -484c37 3 85 13 105 38z" />
    <glyph glyph-name="lamalefhamzabelowisolatedarabi" unicode="&#xfedf;&#xfe88;" horiz-adv-x="449" arabic-form="isolated" 
d="M231 -209v49h-33c-25 0 -38 9 -38 27c0 15 6 23 18 23c10 0 19 -5 27 -13l24 37c-15 19 -32 28 -53 28c-37 0 -66 -31 -66 -71c0 -12 3 -22 9 -31h-43l-23 -49h178zM222 201l-5 446h-105l5 -484c37 3 85 13 105 38zM419 196l-6 451h-107c4 -267 6 -401 6 -404
c0 -53 -24 -93 -71 -118c-35 -19 -75 -28 -122 -28h-44v-97h85c76 0 138 18 186 54c49 37 73 84 73 142z" />
    <glyph glyph-name="lamalefhamzabelowfinalarabicX" unicode="&#xfee0;&#xfe88;" horiz-adv-x="539" arabic-form="final" 
d="M206 -209v49h-33c-25 0 -38 9 -38 27c0 15 6 23 18 23c10 0 19 -5 27 -13l24 37c-15 19 -32 28 -53 28c-37 0 -66 -31 -66 -71c0 -12 3 -22 9 -31h-43l-23 -49h178zM553 0v97h-88c-21 0 -40 9 -59 28c-23 23 -34 51 -34 84l-6 438h-107c4 -267 6 -401 6 -404
c0 -53 -24 -93 -71 -118c-35 -19 -75 -28 -122 -28h-44v-97h85c107 0 183 33 228 98c8 -26 23 -48 45 -67c24 -21 50 -31 78 -31h89zM175 201l-5 446h-105l5 -484c37 3 85 13 105 38z" />
    <glyph glyph-name="lamalefmaddaaboveisolatedarabi" unicode="&#xfedf;&#xfe82;" horiz-adv-x="449" arabic-form="isolated" 
d="M306 795h-39c-2 -23 -15 -35 -39 -35c-8 0 -24 5 -49 14c-24 9 -44 14 -59 14c-39 0 -66 -35 -71 -80h36c4 23 16 34 35 34c10 0 27 -5 51 -14s43 -13 57 -13c22 0 40 8 55 25c13 13 20 32 23 55zM222 201l-5 446h-105l5 -484c37 3 85 13 105 38zM419 196l-6 451h-107
c4 -267 6 -401 6 -404c0 -53 -24 -93 -71 -118c-35 -19 -75 -28 -122 -28h-44v-97h85c76 0 138 18 186 54c49 37 73 84 73 142z" />
    <glyph glyph-name="alefmaddaabovearabic" unicode="&#x627;&#x653;" horiz-adv-x="240" 
d="M283 795h-39c-2 -23 -15 -35 -39 -35c-8 0 -24 5 -49 14c-24 9 -44 14 -59 14c-39 0 -66 -35 -71 -80h36c4 23 16 34 35 34c10 0 27 -5 51 -14s43 -13 57 -13c22 0 40 8 55 25c13 13 20 32 23 55zM210 0l-5 647h-105l5 -647h105z" />
    <glyph glyph-name="alefhamzaabovearabic" unicode="&#x627;&#x654;" horiz-adv-x="240" 
d="M241 708v49h-33c-25 0 -38 9 -38 27c0 15 6 23 18 23c10 0 19 -4 27 -13l24 37c-15 19 -32 28 -53 28c-37 0 -66 -31 -66 -71c0 -12 3 -22 9 -31h-43l-23 -49h178zM210 0l-5 647h-105l5 -647h105z" />
    <glyph glyph-name="wawhamzaabovearabic" unicode="&#x648;&#x654;" horiz-adv-x="490" 
d="M384 427v61h-42c-29 0 -48 17 -48 33c0 20 8 30 23 30c12 0 24 -6 34 -17l30 47c-18 23 -40 35 -66 35c-48 0 -84 -40 -84 -89c0 -16 4 -29 11 -39h-53l-29 -61h224zM135 -134c28 -35 50 -63 65 -83c157 12 259 138 259 310v116c0 96 -62 158 -172 158
c-103 0 -187 -75 -187 -188c0 -95 68 -179 167 -179h70c-32 -83 -111 -134 -202 -134zM353 98h-71c-42 0 -76 39 -76 86c0 68 35 110 81 110c35 0 65 -39 65 -61c0 -8 0 -53 1 -135z" />
    <glyph glyph-name="alefhamzabelowarabic" unicode="&#x627;&#x655;" horiz-adv-x="240" 
d="M211 -209v49h-33c-25 0 -38 9 -38 27c0 15 6 23 18 23c10 0 19 -5 27 -13l24 37c-15 19 -32 28 -53 28c-37 0 -66 -31 -66 -71c0 -12 3 -22 9 -31h-43l-23 -49h178zM210 0l-5 647h-105l5 -647h105z" />
    <glyph glyph-name="yehhamzaabovearabic" unicode="&#x64a;&#x654;" horiz-adv-x="622" 
d="M255 323v65h-44c-18 0 -31 4 -39 13c-7 7 -11 14 -10 23c1 21 9 30 26 29c11 -1 22 -6 33 -17l32 48c-19 25 -42 37 -69 37c-51 0 -87 -42 -87 -93c0 -17 4 -30 12 -40h-57l-30 -65h233zM591 64l-2 123h-208c1 55 21 83 59 83c15 0 30 -9 43 -28l89 44
c-33 61 -79 92 -138 92c-108 0 -166 -81 -166 -214c0 -24 2 -49 5 -74l212 -1l1 -23c0 -55 -18 -99 -53 -132c-31 -29 -67 -43 -108 -43c-38 0 -73 14 -104 43c-37 33 -55 77 -55 130c0 7 -1 24 -2 53s-2 53 -2 70h-104c1 -57 2 -97 3 -122c0 -79 26 -145 78 -200
s115 -83 188 -83s135 28 186 83c52 55 78 121 78 199z" />
    <glyph glyph-name="allahisolated" unicode="&#xfedf;&#xfee0;&#xfeea;" horiz-adv-x="1078" arabic-form="isolated" 
d="M1042 130c0 64 -1 150 -2 258c-1 127 -1 213 -2 259h-105c0 -49 1 -130 2 -241c1 -98 2 -178 2 -240c0 -45 -29 -69 -68 -69h-71c-19 0 -38 9 -55 28c-20 21 -30 49 -31 84c-2 85 -4 231 -5 440h-105l4 -482c0 -23 -10 -41 -30 -54c-16 -10 -33 -15 -50 -16h-102
c-27 0 -41 17 -41 50l-1 283h-105v-36h-2c-23 29 -55 44 -97 44c-35 0 -66 -14 -93 -41c-34 -33 -51 -81 -51 -144c0 -97 40 -145 119 -145h125c0 -72 35 -108 106 -108h179c55 1 106 32 125 81c5 -15 13 -29 25 -43c21 -25 46 -38 76 -38h118c87 0 135 50 135 130zM748 836
h-41l1 -70c0 -12 -5 -17 -16 -14c-13 3 -19 12 -19 29v55h-41v-55c0 -17 -6 -26 -18 -29c-11 -2 -16 3 -16 15v69h-40v-78c0 -31 16 -47 49 -47c16 0 28 4 35 13c3 2 6 9 11 20c11 -23 26 -35 47 -36c32 -1 48 16 48 50v78zM278 205h-88c-31 0 -47 16 -49 48
c-3 53 18 80 64 80c29 0 53 -15 72 -46z" />
    <glyph glyph-name="alefwithfathatanisolated" unicode="&#x627;&#x64b;" horiz-adv-x="240" arabic-form="isolated" 
d="M281 803l-165 -2c-25 -3 -42 -15 -53 -36h156c36 0 57 14 62 38zM256 739l-165 -4c-25 -3 -42 -14 -53 -34h157c35 0 56 13 61 38zM210 0l-5 647h-105l5 -647h105z" />
    <glyph glyph-name="alefwithfathatanfinal" unicode="&#xfe8e;&#x64b;" horiz-adv-x="322" arabic-form="final" 
d="M281 803l-165 -2c-25 -3 -42 -15 -53 -36h156c36 0 57 14 62 38zM256 739l-165 -4c-25 -3 -42 -14 -53 -34h157c35 0 56 13 61 38zM331 0v97h-75c-28 0 -46 27 -46 63l-4 487h-106l3 -529c0 -38 12 -68 34 -89c19 -19 43 -29 71 -29h123z" />
    <glyph glyph-name="behinitialarabic" unicode="&#x628;" horiz-adv-x="311" arabic-form="initial" 
d="M281 130c0 -1 -1 77 -2 235h-106c1 -25 1 -59 2 -100c1 -27 1 -60 1 -99c0 -45 -29 -69 -68 -69h-118v-97h157c87 0 134 50 134 130zM184 -152v101h-96v-101h96z" />
    <glyph glyph-name="tehinitialarabic" unicode="&#x62a;" horiz-adv-x="311" arabic-form="initial" 
d="M273 446v101h-96v-101h96zM128 446v101h-96v-101h96zM281 130c0 -1 -1 77 -2 235h-106c1 -25 1 -59 2 -100c1 -27 1 -60 1 -99c0 -45 -29 -69 -68 -69h-118v-97h157c87 0 134 50 134 130z" />
    <glyph glyph-name="thehinitialarabic" unicode="&#x62b;" horiz-adv-x="311" arabic-form="initial" 
d="M202 578v100h-97v-100h97zM274 446v101h-96v-101h96zM129 446v101h-96v-101h96zM281 130c0 -1 -1 77 -2 235h-106c1 -25 1 -59 2 -100c1 -27 1 -60 1 -99c0 -45 -29 -69 -68 -69h-118v-97h157c87 0 134 50 134 130z" />
    <glyph glyph-name="jeeminitialarabic" unicode="&#x62c;" horiz-adv-x="566" arabic-form="initial" 
d="M536 0c0 103 -19 187 -58 253c-49 81 -123 122 -220 122c-78 0 -137 -17 -177 -52l41 -82c28 23 72 34 133 34c95 0 153 -59 173 -177h-440v-98h548zM323 -152v101h-96v-101h96z" />
    <glyph glyph-name="hahinitialarabic" unicode="&#x62d;" horiz-adv-x="566" arabic-form="initial" 
d="M536 0c0 103 -19 187 -58 253c-49 81 -123 122 -220 122c-78 0 -137 -17 -177 -52l41 -82c28 23 72 34 133 34c95 0 153 -59 173 -177h-440v-98h548z" />
    <glyph glyph-name="khahinitialarabic" unicode="&#x62e;" horiz-adv-x="566" arabic-form="initial" 
d="M319 446v101h-97v-101h97zM536 0c0 103 -19 187 -58 253c-49 81 -123 122 -220 122c-78 0 -137 -17 -177 -52l41 -82c28 23 72 34 133 34c95 0 153 -59 173 -177h-440v-98h548z" />
    <glyph glyph-name="seeninitialarabic" unicode="&#x633;" horiz-adv-x="779" arabic-form="initial" 
d="M744 150l-1 215h-106c1 -143 1 -212 1 -209c0 -45 -20 -67 -61 -67c-27 0 -48 9 -65 27c-19 19 -28 47 -29 84c-1 63 -1 108 -2 136h-105c1 -105 1 -165 1 -179c0 -45 -20 -68 -61 -68c-27 0 -48 9 -65 27c-17 17 -26 41 -29 71v4v145h-106c1 -25 2 -104 3 -239h-128
l-1 -97h233v38c28 -35 67 -53 117 -52c63 1 106 28 128 79c27 -54 72 -80 133 -79c95 2 142 57 143 164z" />
    <glyph glyph-name="sheeninitialarabic" unicode="&#x634;" horiz-adv-x="779" arabic-form="initial" 
d="M744 150l-1 215h-106c1 -143 1 -212 1 -209c0 -45 -20 -67 -61 -67c-27 0 -48 9 -65 27c-19 19 -28 47 -29 84c-1 63 -1 108 -2 136h-105c1 -105 1 -165 1 -179c0 -45 -20 -68 -61 -68c-27 0 -48 9 -65 27c-17 17 -26 41 -29 71v4v145h-106c1 -25 2 -104 3 -239h-128
l-1 -97h233v38c28 -35 67 -53 117 -52c63 1 106 28 128 79c27 -54 72 -80 133 -79c95 2 142 57 143 164zM548 446v101h-97v-101h97zM403 446v101h-97v-101h97zM475 578v100h-96v-100h96z" />
    <glyph glyph-name="tahinitialarabic" unicode="&#x637;" horiz-adv-x="642" arabic-form="initial" 
d="M612 0c0 245 -79 367 -237 367c-71 0 -134 -32 -189 -95l5 321h-103l2 -496h-99v-97h621zM505 97h-333c41 117 108 175 201 175c87 0 131 -58 132 -175z" />
    <glyph glyph-name="zahinitialarabic" unicode="&#x638;" horiz-adv-x="637" arabic-form="initial" 
d="M410 446v101h-95v-101h95zM612 0c0 245 -79 367 -237 367c-71 0 -134 -32 -189 -95l5 321h-103l2 -496h-99v-97h621zM505 97h-333c41 117 108 175 201 175c90 0 134 -58 132 -175z" />
    <glyph glyph-name="aininitialarabic" unicode="&#x639;" horiz-adv-x="501" arabic-form="initial" 
d="M471 0l-35 98h-102c-68 0 -115 37 -115 101c0 44 30 75 73 75c28 0 53 -13 74 -38l56 77c-35 43 -82 65 -141 65c-45 0 -83 -13 -115 -39c-38 -30 -57 -71 -56 -123c0 -32 8 -61 23 -88c5 -11 12 -22 21 -31h-163v-97h480z" />
    <glyph glyph-name="ghaininitialarabic" unicode="&#x63a;" horiz-adv-x="501" arabic-form="initial" 
d="M320 446v101h-97v-101h97zM471 0l-35 98h-102c-68 0 -115 37 -115 101c0 44 30 75 73 75c28 0 53 -13 74 -38l56 77c-35 43 -82 65 -141 65c-45 0 -83 -13 -115 -39c-38 -30 -57 -71 -56 -123c0 -32 8 -61 23 -88c5 -11 12 -22 21 -31h-163v-97h480z" />
    <glyph glyph-name="fehinitialarabic" unicode="&#x641;" horiz-adv-x="416" arabic-form="initial" 
d="M264 589v101h-97v-101h97zM386 88v291c-1 97 -58 150 -171 159c-44 3 -84 -10 -119 -39c-43 -35 -66 -84 -68 -149c-2 -47 12 -88 42 -123c32 -37 73 -56 122 -56h86v-28c-1 -31 -14 -46 -40 -46h-248v-97h306c61 0 91 29 90 88zM278 267h-70c-44 0 -78 40 -77 89
c4 65 34 107 81 107c21 0 38 -9 50 -27c10 -14 15 -25 15 -34c0 -8 0 -53 1 -135z" />
    <glyph glyph-name="qafinitialarabic" unicode="&#x642;" horiz-adv-x="416" arabic-form="initial" 
d="M330 589v101h-96v-101h96zM185 589v101h-96v-101h96zM386 88v291c-1 97 -58 150 -171 159c-44 3 -84 -10 -119 -39c-43 -35 -66 -84 -68 -149c-2 -47 12 -88 42 -123c32 -37 73 -56 122 -56h86v-28c-1 -31 -14 -46 -40 -46h-248v-97h306c61 0 91 29 90 88zM278 267h-70
c-44 0 -78 40 -77 89c4 65 34 107 81 107c21 0 38 -9 50 -27c10 -14 15 -25 15 -34c0 -8 0 -53 1 -135z" />
    <glyph glyph-name="kafinitialarabic" unicode="&#x643;" horiz-adv-x="537" arabic-form="initial" 
d="M507 0c0 106 -20 190 -60 253c-47 75 -120 112 -219 112l137 135l-74 73l-269 -271l39 -82c49 31 98 47 149 47c48 0 89 -14 122 -42c35 -30 57 -72 65 -127h-407v-98h517z" />
    <glyph glyph-name="laminitialarabic" unicode="&#x644;" horiz-adv-x="261" arabic-form="initial" 
d="M231 130c0 64 -1 150 -2 258c-1 127 -1 213 -2 259h-105c0 -49 1 -130 2 -241c1 -98 2 -178 2 -240c0 -45 -29 -69 -68 -69h-68v-97h106c87 0 135 50 135 130z" />
    <glyph glyph-name="meeminitialarabic" unicode="&#x645;" horiz-adv-x="492" arabic-form="initial" 
d="M462 188c0 49 -16 92 -48 128c-37 40 -84 60 -142 60c-115 0 -182 -72 -182 -188c0 -32 7 -62 21 -91h-121v-97h294c112 0 178 72 178 188zM358 187c0 -64 -33 -101 -77 -101c-21 0 -40 8 -55 25c-17 19 -26 45 -26 76c0 32 7 57 22 76c14 17 32 25 55 25
c21 0 40 -8 55 -25c17 -19 26 -45 26 -76z" />
    <glyph glyph-name="nooninitialarabic" unicode="&#x646;" horiz-adv-x="311" arabic-form="initial" 
d="M271 445v101h-97v-101h97zM281 130c0 -1 -1 77 -2 235h-106c1 -25 1 -59 2 -100c1 -27 1 -60 1 -99c0 -45 -29 -69 -68 -69h-118v-97h157c87 0 134 50 134 130z" />
    <glyph glyph-name="hehinitialarabic" unicode="&#x647;" horiz-adv-x="709" arabic-form="initial" 
d="M679 0c0 102 -29 193 -87 272c-69 95 -163 143 -280 143c-79 0 -165 -22 -257 -65c23 -50 38 -82 45 -97c17 8 37 16 59 25c-8 -22 -12 -47 -12 -74c0 -39 11 -74 33 -107h-190v-97h689zM558 98h-94c17 29 25 63 25 104c0 11 -1 21 -3 31c37 -39 61 -84 72 -135zM393 204
c0 -68 -30 -106 -71 -106c-19 0 -36 9 -50 27c-15 19 -23 46 -23 79s8 59 23 80c13 17 28 26 47 26s36 -9 50 -26c16 -21 24 -47 24 -80z" />
    <glyph glyph-name="yehinitialarabic" unicode="&#x64a;" horiz-adv-x="311" arabic-form="initial" 
d="M281 130c0 -1 -1 77 -2 235h-106c1 -25 1 -59 2 -100c1 -27 1 -60 1 -99c0 -45 -29 -69 -68 -69h-118v-97h157c87 0 134 50 134 130zM228 -152v101h-96v-101h96zM84 -152v101h-97v-101h97z" />
    <glyph glyph-name="yehhamzaabovemedialarabic" unicode="&#x626;" horiz-adv-x="465" arabic-form="medial" 
d="M338 445v64h-45c-17 0 -31 4 -40 13c-6 7 -9 15 -9 24c1 21 10 30 26 29c12 -1 23 -7 33 -17l32 48c-19 24 -42 36 -69 36c-51 0 -88 -41 -88 -93c0 -16 4 -29 13 -40h-57l-30 -64h234zM473 0v25v47v25h-90c-20 0 -38 9 -55 28c-21 21 -31 49 -31 84c-2 67 -3 119 -3 156
h-105l2 -198c0 -23 -10 -41 -31 -54c-16 -11 -33 -16 -52 -16h-118v-97h158c55 1 107 32 124 81c5 -15 14 -29 25 -43c21 -25 47 -38 77 -38h99z" />
    <glyph glyph-name="behmedialarabic" unicode="&#x628;" horiz-adv-x="465" arabic-form="medial" 
d="M472 0v25v47v25h-89c-20 0 -38 9 -55 28c-21 21 -31 49 -31 84c-2 67 -3 119 -3 156h-105l2 -198c0 -23 -10 -41 -31 -54c-16 -11 -33 -16 -52 -16h-118v-97h158c55 1 107 32 124 81c5 -15 14 -29 25 -43c21 -25 47 -38 77 -38h98zM303 -152v101h-97v-101h97z" />
    <glyph glyph-name="tehmedialarabic" unicode="&#x62a;" horiz-adv-x="465" arabic-form="medial" 
d="M359 446v101h-97v-101h97zM214 446v101h-97v-101h97zM472 0v25v47v25h-89c-20 0 -38 9 -55 28c-21 21 -31 49 -31 84c-2 67 -3 119 -3 156h-105l2 -198c0 -23 -10 -41 -31 -54c-16 -11 -33 -16 -52 -16h-118v-97h158c55 1 107 32 124 81c5 -15 14 -29 25 -43
c21 -25 47 -38 77 -38h98z" />
    <glyph glyph-name="thehmedialarabic" unicode="&#x62b;" horiz-adv-x="465" arabic-form="medial" 
d="M289 578v100h-97v-100h97zM361 446v101h-96v-101h96zM216 446v101h-96v-101h96zM473 0v25v47v25h-90c-20 0 -38 9 -55 28c-21 21 -31 49 -31 84c-2 67 -3 119 -3 156h-105l2 -198c0 -23 -10 -41 -31 -54c-16 -11 -33 -16 -52 -16h-118v-97h158c55 1 107 32 124 81
c5 -15 14 -29 25 -43c21 -25 47 -38 77 -38h99z" />
    <glyph glyph-name="jeemmedialarabic" unicode="&#x62c;" horiz-adv-x="619" arabic-form="medial" 
d="M628 0v97h-98c-12 81 -38 146 -79 193c-48 57 -112 85 -193 85c-78 0 -137 -17 -177 -52l41 -82c28 23 72 34 133 34c96 0 154 -59 174 -178h-439v-97h520h118zM323 -152v101h-96v-101h96z" />
    <glyph glyph-name="hahmedialarabic" unicode="&#x62d;" horiz-adv-x="619" arabic-form="medial" 
d="M628 0v97h-98c-12 81 -38 146 -79 193c-48 57 -112 85 -193 85c-78 0 -137 -17 -177 -52l41 -82c28 23 72 34 133 34c96 0 154 -59 174 -178h-439v-97h520h118z" />
    <glyph glyph-name="khahmedialarabic" unicode="&#x62e;" horiz-adv-x="619" arabic-form="medial" 
d="M319 446v101h-97v-101h97zM628 0v97h-98c-12 81 -38 146 -79 193c-48 57 -112 85 -193 85c-78 0 -137 -17 -177 -52l41 -82c28 23 72 34 133 34c96 0 154 -59 174 -178h-439v-97h520h118z" />
    <glyph glyph-name="seenmedialarabic" unicode="&#x633;" horiz-adv-x="919" arabic-form="medial" 
d="M935 0v97h-105c-19 0 -37 8 -54 25c-20 19 -31 44 -32 75c-1 77 -2 133 -2 168h-105c1 -143 1 -212 1 -209c0 -45 -20 -67 -61 -67c-27 0 -48 9 -65 27c-19 19 -28 47 -29 84c-1 63 -2 108 -2 136h-105c1 -105 1 -165 1 -179c0 -45 -20 -68 -61 -68c-27 0 -49 9 -66 27
c-16 17 -25 41 -28 71v4v145h-105c0 -25 1 -104 2 -239h-128l-1 -97h233v38c28 -35 67 -53 117 -52c63 1 106 28 127 79c28 -54 73 -80 134 -79c70 1 114 33 133 95c9 -25 24 -45 45 -60c19 -14 39 -21 58 -21h98z" />
    <glyph glyph-name="sheenmedialarabic" unicode="&#x634;" horiz-adv-x="919" arabic-form="medial" 
d="M935 0v97h-105c-19 0 -37 8 -54 25c-20 19 -31 44 -32 75c-1 77 -2 133 -2 168h-105c1 -143 1 -212 1 -209c0 -45 -20 -67 -61 -67c-27 0 -48 9 -65 27c-19 19 -28 47 -29 84c-1 63 -2 108 -2 136h-105c1 -105 1 -165 1 -179c0 -45 -20 -68 -61 -68c-27 0 -49 9 -66 27
c-16 17 -25 41 -28 71v4v145h-105c0 -25 1 -104 2 -239h-128l-1 -97h233v38c28 -35 67 -53 117 -52c63 1 106 28 127 79c28 -54 73 -80 134 -79c70 1 114 33 133 95c9 -25 24 -45 45 -60c19 -14 39 -21 58 -21h98zM548 446v101h-97v-101h97zM403 446v101h-97v-101h97z
M475 578v100h-96v-100h96z" />
    <glyph glyph-name="sadmedialarabic" unicode="&#x635;" horiz-adv-x="900" arabic-form="medial" 
d="M917 0v97h-181c-15 167 -85 256 -209 269c-45 5 -93 -8 -146 -37c-69 -38 -122 -97 -159 -178v119h-105l2 -173h-128l-1 -97h927zM633 97h-353c60 117 134 175 221 175c7 0 15 -1 23 -2c47 -5 79 -36 96 -92c8 -23 12 -50 13 -81z" />
    <glyph glyph-name="dadmedialarabic" unicode="&#x636;" horiz-adv-x="900" arabic-form="medial" 
d="M917 0v97h-181c-15 167 -85 256 -209 269c-45 5 -93 -8 -146 -37c-69 -38 -122 -97 -159 -178v119h-105l2 -173h-128l-1 -97h927zM633 97h-353c60 117 134 175 221 175c7 0 15 -1 23 -2c47 -5 79 -36 96 -92c8 -23 12 -50 13 -81zM539 446v101h-96v-101h96z" />
    <glyph glyph-name="tahmedialarabic" unicode="&#x637;" horiz-adv-x="745" arabic-form="medial" 
d="M754 0v97h-146c-17 180 -95 270 -234 270c-78 0 -141 -32 -189 -95l6 321h-104l3 -496h-100v-97h764zM503 97h-333c41 117 109 175 202 175c86 0 130 -58 131 -175z" />
    <glyph glyph-name="zahmedialarabic" unicode="&#x638;" horiz-adv-x="745" arabic-form="medial" 
d="M410 446v101h-95v-101h95zM754 0v97h-146c-17 180 -95 270 -234 270c-78 0 -141 -32 -189 -95l6 321h-104l3 -496h-100v-97h764zM503 97h-333c41 117 109 175 202 175c88 0 132 -58 131 -175z" />
    <glyph glyph-name="ainmedialarabic" unicode="&#x639;" horiz-adv-x="635" arabic-form="medial" 
d="M644 0v97h-158c-27 0 -46 3 -59 10c70 58 126 127 167 206c-69 68 -174 109 -285 109c-93 0 -176 -27 -250 -81v-82c73 -4 146 -50 219 -137c-39 -17 -77 -25 -114 -25h-173v-97h174c55 0 113 16 172 48c27 -32 61 -48 102 -48h205zM459 284c-25 -41 -58 -77 -99 -108
c-50 68 -103 110 -159 125c33 15 70 23 110 23c63 0 112 -13 148 -40z" />
    <glyph glyph-name="ghainmedialarabic" unicode="&#x63a;" horiz-adv-x="635" arabic-form="medial" 
d="M377 490v101h-97v-101h97zM644 0v97h-158c-27 0 -46 3 -59 10c70 58 126 127 167 206c-69 68 -174 109 -285 109c-93 0 -176 -27 -250 -81v-82c73 -4 146 -50 219 -137c-39 -17 -77 -25 -114 -25h-173v-97h174c55 0 113 16 172 48c27 -32 61 -48 102 -48h205zM459 284
c-25 -41 -58 -77 -99 -108c-50 68 -103 110 -159 125c33 15 70 23 110 23c63 0 112 -13 148 -40z" />
    <glyph glyph-name="fehmedialarabic" unicode="&#x641;" horiz-adv-x="500" arabic-form="medial" 
d="M279 514v101h-96v-101h96zM509 0v97h-56c-43 0 -78 3 -105 8c47 47 70 99 70 158c0 55 -19 98 -57 130c-34 29 -77 44 -128 44s-94 -15 -128 -44c-37 -32 -56 -75 -56 -130c0 -59 24 -112 71 -158c-25 -5 -60 -8 -103 -8h-27v-97h81c53 0 108 11 163 34
c55 -23 110 -34 165 -34h110zM312 267c0 -31 -11 -61 -33 -89c-18 -22 -33 -33 -45 -33s-27 11 -45 33c-23 28 -34 58 -34 89c0 49 30 90 79 90c24 0 43 -9 58 -28c13 -17 20 -37 20 -62z" />
    <glyph glyph-name="qafmedialarabic" unicode="&#x642;" horiz-adv-x="500" arabic-form="medial" 
d="M351 514v101h-96v-101h96zM206 514v101h-96v-101h96zM509 0v97h-56c-43 0 -78 3 -105 8c47 47 70 99 70 158c0 55 -19 98 -57 130c-34 29 -77 44 -128 44s-94 -15 -128 -44c-37 -32 -56 -75 -56 -130c0 -59 24 -112 71 -158c-25 -5 -60 -8 -103 -8h-27v-97h81
c53 0 108 11 163 34c55 -23 110 -34 165 -34h110zM312 267c0 -31 -11 -61 -33 -89c-18 -22 -33 -33 -45 -33s-27 11 -45 33c-23 28 -34 58 -34 89c0 49 30 90 79 90c24 0 43 -9 58 -28c13 -17 20 -37 20 -62z" />
    <glyph glyph-name="kafmedialarabic" unicode="&#x643;" horiz-adv-x="671" arabic-form="medial" 
d="M680 0v97h-181c-26 179 -117 268 -272 268l138 135l-75 73l-269 -271l39 -82c48 31 98 47 149 47c47 0 88 -14 121 -42c36 -31 58 -73 67 -128h-407v-97h690z" />
    <glyph glyph-name="lammedialarabic" unicode="&#x644;" horiz-adv-x="404" arabic-form="medial" 
d="M413 0v97h-75c-42 0 -84 47 -86 112c-1 30 -5 366 -5 440h-105l4 -482c0 -42 -42 -70 -83 -70h-73v-97h113c55 0 106 33 125 81c15 -46 57 -81 101 -81h84z" />
    <glyph glyph-name="meemmedialarabic" unicode="&#x645;" horiz-adv-x="527" arabic-form="medial" 
d="M535 0v97h-82c0 50 -17 93 -50 129c-35 39 -82 59 -141 59c-113 0 -183 -72 -183 -188h-89v-97h115c35 -61 90 -91 165 -91c79 0 133 30 162 91h103zM348 97c0 -65 -33 -101 -77 -101c-21 0 -40 8 -55 25c-17 19 -26 44 -26 76s8 57 23 75c14 17 32 25 54 25
c21 0 40 -8 55 -25c17 -19 26 -44 26 -75z" />
    <glyph glyph-name="noonmedialarabic" unicode="&#x646;" horiz-adv-x="465" arabic-form="medial" 
d="M288 445v101h-97v-101h97zM473 0v25v47v25h-90c-20 0 -38 9 -55 28c-21 21 -31 49 -31 84c-2 67 -3 119 -3 156h-105l2 -198c0 -23 -10 -41 -31 -54c-16 -11 -33 -16 -52 -16h-118v-97h158c55 1 107 32 124 81c5 -15 14 -29 25 -43c21 -25 47 -38 77 -38h99z" />
    <glyph glyph-name="hehmedialarabic" unicode="&#x647;" horiz-adv-x="792" arabic-form="medial" 
d="M801 0v97h-133c-19 87 -56 160 -111 217c-66 67 -148 101 -246 101c-79 0 -165 -22 -257 -65c23 -50 38 -82 45 -97c17 8 37 16 59 25c-7 -22 -11 -47 -11 -74c0 -39 10 -75 31 -107h-188v-97h811zM557 97h-94c17 29 25 64 25 104c0 11 -1 21 -3 31
c37 -39 61 -84 72 -135zM392 204c0 -68 -30 -106 -70 -106c-20 0 -37 9 -50 27c-16 19 -24 46 -24 79s8 59 23 80c13 17 28 26 47 26s36 -9 50 -26c16 -21 24 -47 24 -80z" />
    <glyph glyph-name="yehmedialarabic" unicode="&#x64a;" horiz-adv-x="454" arabic-form="medial" 
d="M463 0v25v47v25h-80c-20 0 -38 9 -55 28c-21 21 -31 49 -31 84c-2 67 -3 119 -3 156h-105l2 -198c0 -23 -10 -41 -31 -54c-16 -11 -33 -16 -52 -16h-118v-97h158c55 1 107 32 124 81c5 -15 14 -29 25 -43c21 -25 47 -38 77 -38h89zM340 -152v101h-96v-101h96zM196 -152
v101h-97v-101h97z" />
    <glyph glyph-name="alefmaddaabovefinalarabic" unicode="&#x622;" horiz-adv-x="322" arabic-form="final" 
d="M296 795h-39c-2 -23 -15 -35 -39 -35c-8 0 -24 5 -49 14c-24 9 -44 14 -59 14c-39 0 -66 -35 -71 -80h36c4 23 16 34 35 34c10 0 27 -5 51 -14s43 -13 57 -13c22 0 40 8 55 25c13 13 20 32 23 55zM331 0v97h-75c-28 0 -46 27 -46 63l-4 487h-106l3 -529
c0 -38 12 -68 34 -89c19 -19 43 -29 71 -29h123z" />
    <glyph glyph-name="alefhamzaabovefinalarabic" unicode="&#x623;" horiz-adv-x="322" arabic-form="final" 
d="M229 708v49h-33c-25 0 -38 9 -38 27c0 15 6 23 18 23c10 0 19 -4 27 -13l24 37c-15 19 -32 28 -53 28c-37 0 -66 -31 -66 -71c0 -12 3 -22 9 -31h-43l-23 -49h178zM331 0v97h-75c-28 0 -46 27 -46 63l-4 487h-106l3 -529c0 -38 12 -68 34 -89c19 -19 43 -29 71 -29h123z
" />
    <glyph glyph-name="wawhamzaabovefinalarabic" unicode="&#x624;" horiz-adv-x="584" arabic-form="final" 
d="M385 427v61h-42c-29 0 -48 17 -48 33c0 20 8 30 23 30c12 0 24 -6 34 -17l30 47c-18 23 -40 35 -66 35c-48 0 -84 -40 -84 -89c0 -16 4 -29 11 -39h-53l-29 -61h224zM594 0v97h-134v112c0 96 -63 158 -172 158c-103 0 -187 -75 -187 -188c0 -95 68 -179 167 -179h70
c-32 -83 -111 -134 -202 -134c28 -35 50 -63 65 -83c127 11 218 93 249 217h144zM354 97h-71c-42 0 -76 39 -76 87c0 66 35 109 81 109c35 0 65 -39 65 -61c0 -8 0 -53 1 -135z" />
    <glyph glyph-name="alefhamzabelowfinalarabic" unicode="&#x625;" horiz-adv-x="322" arabic-form="final" 
d="M241 -209v49h-33c-25 0 -38 9 -38 27c0 15 6 23 18 23c10 0 19 -5 27 -13l24 37c-15 19 -32 28 -53 28c-37 0 -66 -31 -66 -71c0 -12 3 -22 9 -31h-43l-23 -49h178zM331 0v97h-75c-28 0 -46 27 -46 63l-4 487h-106l3 -529c0 -38 12 -68 34 -89c19 -19 43 -29 71 -29h123z
" />
    <glyph glyph-name="yehhamzaabovefinalarabic" unicode="&#x626;" horiz-adv-x="870" arabic-form="final" 
d="M255 355v65h-44c-18 0 -31 4 -39 13c-7 7 -11 14 -10 23c1 21 9 30 26 29c11 -1 22 -6 33 -17l32 48c-19 25 -42 37 -69 37c-51 0 -87 -42 -87 -94c0 -16 4 -29 12 -39h-57l-30 -65h233zM879 0v97h-38c-42 0 -69 21 -80 64c-17 63 -37 112 -61 146
c-44 62 -106 93 -185 93c-73 0 -131 -26 -173 -78c-45 -55 -67 -132 -67 -233h213l1 -23c0 -55 -18 -99 -53 -132c-31 -29 -67 -43 -108 -43c-38 0 -73 14 -105 43c-37 33 -55 77 -55 130c0 7 -1 24 -2 53s-1 53 -1 70h-105c2 -57 4 -97 5 -122c0 -79 26 -145 77 -200
c52 -55 114 -83 187 -83s136 28 188 83s78 121 78 199v123h-192c22 69 61 104 118 105c72 1 121 -57 147 -174c6 -28 19 -53 40 -75c26 -29 59 -43 98 -43h73z" />
    <glyph glyph-name="aleffinalarabic" unicode="&#x627;" horiz-adv-x="322" arabic-form="final" 
d="M331 0v97h-75c-28 0 -46 27 -46 63l-4 487h-106l3 -529c0 -38 12 -68 34 -89c19 -19 43 -29 71 -29h123z" />
    <glyph glyph-name="behfinalarabic" unicode="&#x628;" horiz-adv-x="876" arabic-form="final" 
d="M885 0v97h-91c-19 0 -38 9 -55 28c-20 21 -30 49 -31 84c-1 71 -1 123 -2 156h-106l3 -212c0 -37 -13 -56 -39 -56h-254c-62 0 -108 31 -137 92c-23 47 -34 105 -34 176h-105c-2 -97 15 -177 52 -242c47 -82 120 -123 219 -123h310c49 0 79 22 91 67
c23 -45 54 -67 95 -67h84zM479 -171v101h-95v-101h95z" />
    <glyph glyph-name="tehmarbutafinalarabic" unicode="&#x629;" horiz-adv-x="517" arabic-form="final" 
d="M348 520v101h-96v-101h96zM203 520v101h-96v-101h96zM526 0v97h-102c-27 0 -41 17 -41 50l-1 283h-105v-36h-2c-23 29 -55 44 -97 44c-35 0 -66 -14 -93 -41c-34 -33 -51 -81 -51 -144c0 -97 40 -145 119 -145h125c0 -72 35 -108 106 -108h142zM278 205h-88
c-31 0 -47 16 -49 48c-3 53 18 80 64 80c29 0 53 -15 72 -46z" />
    <glyph glyph-name="tehfinalarabic" unicode="&#x62a;" horiz-adv-x="876" arabic-form="final" 
d="M497 365v101h-96v-101h96zM353 365v101h-97v-101h97zM885 0v97h-91c-19 0 -38 9 -55 28c-20 21 -30 49 -31 84c-1 71 -1 123 -2 156h-106l3 -212c0 -37 -13 -56 -39 -56h-254c-62 0 -108 31 -137 92c-23 47 -34 105 -34 176h-105c-2 -97 15 -177 52 -242
c47 -82 120 -123 219 -123h310c49 0 79 22 91 67c23 -45 54 -67 95 -67h84z" />
    <glyph glyph-name="thehfinalarabic" unicode="&#x62b;" horiz-adv-x="876" arabic-form="final" 
d="M425 497v100h-97v-100h97zM497 365v100h-96v-100h96zM352 365v100h-96v-100h96zM885 0v97h-91c-19 0 -38 9 -55 28c-20 21 -30 49 -31 84c-1 71 -1 123 -2 156h-106l3 -212c0 -37 -13 -56 -39 -56h-254c-62 0 -108 31 -137 92c-23 47 -34 105 -34 176h-105
c-2 -97 15 -177 52 -242c47 -82 120 -123 219 -123h310c49 0 79 22 91 67c23 -45 54 -67 95 -67h84z" />
    <glyph glyph-name="jeemfinalarabic" unicode="&#x62c;" horiz-adv-x="642" arabic-form="final" 
d="M651 0c0 6 0 14 -1 25v47v25h-44c-17 0 -33 4 -47 13c-21 12 -32 30 -34 54c-9 76 -35 140 -77 191c-46 57 -103 85 -171 85c-60 0 -113 -19 -158 -58l38 -79c36 27 72 41 107 41c32 1 61 -9 86 -28c34 -25 55 -65 64 -120h-192c-55 0 -101 -22 -137 -65
c-34 -41 -51 -89 -51 -145s20 -104 59 -143c40 -40 88 -60 144 -60h140v97h-132c-27 0 -52 10 -73 29c-23 21 -35 48 -35 81c0 67 40 108 111 108h197c31 -65 81 -98 150 -98h56zM356 -63v101h-96v-101h96z" />
    <glyph glyph-name="hahfinalarabic" unicode="&#x62d;" horiz-adv-x="642" arabic-form="final" 
d="M651 0c0 6 0 14 -1 25v47v25h-44c-17 0 -33 4 -47 13c-21 12 -32 30 -34 54c-9 76 -35 140 -77 191c-46 57 -103 85 -171 85c-60 0 -113 -19 -158 -58l38 -79c36 27 72 41 107 41c32 1 61 -9 86 -28c34 -25 55 -65 64 -120h-192c-55 0 -101 -22 -137 -65
c-34 -41 -51 -89 -51 -145s20 -104 59 -143c40 -40 88 -60 144 -60h140v97h-132c-27 0 -52 10 -73 29c-23 21 -35 48 -35 81c0 67 40 108 111 108h197c31 -65 81 -98 150 -98h56z" />
    <glyph glyph-name="khahfinalarabic" unicode="&#x62e;" horiz-adv-x="642" arabic-form="final" 
d="M357 492v101h-97v-101h97zM651 0c0 6 0 14 -1 25v47v25h-44c-17 0 -33 4 -47 13c-21 12 -32 30 -34 54c-9 76 -35 140 -77 191c-46 57 -103 85 -171 85c-60 0 -113 -19 -158 -58l38 -79c36 27 72 41 107 41c32 1 61 -9 86 -28c34 -25 55 -65 64 -120h-192
c-55 0 -101 -22 -137 -65c-34 -41 -51 -89 -51 -145s20 -104 59 -143c40 -40 88 -60 144 -60h140v97h-132c-27 0 -52 10 -73 29c-23 21 -35 48 -35 81c0 67 40 108 111 108h197c31 -65 81 -98 150 -98h56z" />
    <glyph glyph-name="dalfinalarabic" unicode="&#x62f;" horiz-adv-x="653" arabic-form="final" 
d="M662 0v97h-136c-11 89 -39 157 -83 202c-42 44 -97 66 -164 66v-95c27 0 54 -14 81 -41c33 -33 52 -77 58 -132h-278l-50 -97h572z" />
    <glyph glyph-name="thalfinalarabic" unicode="&#x630;" horiz-adv-x="653" arabic-form="final" 
d="M376 446v101h-97v-101h97zM662 0v97h-136c-11 89 -39 157 -83 202c-42 44 -97 66 -164 66v-95c27 0 54 -14 81 -41c33 -33 52 -77 58 -132h-278l-50 -97h572z" />
    <glyph glyph-name="rehfinalarabic" unicode="&#x631;" horiz-adv-x="467" arabic-form="final" 
d="M-47 -134c29 -35 51 -63 66 -83c146 12 250 123 260 279c23 -41 54 -62 93 -62h104v97h-111c-42 0 -82 46 -87 101v167h-106v-283c0 -125 -93 -214 -219 -216z" />
    <glyph glyph-name="zainfinalarabic" unicode="&#x632;" horiz-adv-x="467" arabic-form="final" 
d="M271 446v101h-97v-101h97zM-47 -134c29 -35 51 -63 66 -83c146 12 250 123 260 279c23 -41 54 -62 93 -62h104v97h-111c-42 0 -82 46 -87 101v167h-106v-283c0 -125 -93 -214 -219 -216z" />
    <glyph glyph-name="seenfinalarabic" unicode="&#x633;" horiz-adv-x="1262" arabic-form="final" 
d="M1280 0v97h-105c-19 0 -37 8 -54 25c-20 19 -31 44 -32 75c-1 77 -2 133 -2 168h-105c1 -143 1 -212 1 -209c0 -45 -20 -67 -61 -67c-27 0 -48 9 -65 27c-19 19 -28 47 -29 84c-1 63 -2 108 -2 136h-105c1 -105 1 -165 1 -179c0 -45 -20 -68 -61 -68c-27 0 -49 9 -66 27
c-18 20 -27 48 -28 85v135h-105c0 -25 1 -115 2 -271c0 -48 -16 -89 -48 -123c-31 -34 -69 -51 -113 -51c-45 0 -83 17 -114 51c-31 33 -47 74 -47 121c-1 60 -1 129 -1 206h-107l4 -204c0 -79 26 -145 78 -200s114 -83 187 -83s136 28 187 83c46 49 72 107 77 174
c28 -36 67 -54 118 -53c63 1 106 28 127 79c28 -54 73 -80 134 -79c70 1 114 33 133 95c9 -25 24 -45 45 -60c19 -14 39 -21 58 -21h98z" />
    <glyph glyph-name="sheenfinalarabic" unicode="&#x634;" horiz-adv-x="1262" arabic-form="final" 
d="M1280 0v97h-105c-19 0 -37 8 -54 25c-20 19 -31 44 -32 75c-1 77 -2 133 -2 168h-105c1 -143 1 -212 1 -209c0 -45 -20 -67 -61 -67c-27 0 -48 9 -65 27c-19 19 -28 47 -29 84c-1 63 -2 108 -2 136h-105c1 -105 1 -165 1 -179c0 -45 -20 -68 -61 -68c-27 0 -49 9 -66 27
c-18 20 -27 48 -28 85v135h-105c0 -25 1 -115 2 -271c0 -48 -16 -89 -48 -123c-31 -34 -69 -51 -113 -51c-45 0 -83 17 -114 51c-31 33 -47 74 -47 121c-1 60 -1 129 -1 206h-107l4 -204c0 -79 26 -145 78 -200s114 -83 187 -83s136 28 187 83c46 49 72 107 77 174
c28 -36 67 -54 118 -53c63 1 106 28 127 79c28 -54 73 -80 134 -79c70 1 114 33 133 95c9 -25 24 -45 45 -60c19 -14 39 -21 58 -21h98zM893 446v101h-97v-101h97zM748 446v101h-97v-101h97zM820 578v100h-96v-100h96z" />
    <glyph glyph-name="sadfinalarabic" unicode="&#x635;" horiz-adv-x="1243" arabic-form="final" 
d="M1258 0v97h-181c-15 167 -85 256 -209 269c-45 5 -93 -8 -146 -37c-67 -37 -119 -93 -155 -170l-1 111h-107l5 -205c0 -48 -16 -89 -48 -123c-31 -34 -69 -51 -113 -51c-45 0 -83 17 -114 51c-31 33 -47 74 -47 121c-1 60 -1 129 -1 206h-107l4 -204
c0 -79 26 -145 78 -200s114 -83 187 -83s136 28 187 83c37 39 61 84 71 135h697zM974 97h-353c60 117 134 175 221 175c7 0 15 -1 23 -2c47 -5 79 -36 96 -92c8 -23 12 -50 13 -81z" />
    <glyph glyph-name="dadfinalarabic" unicode="&#x636;" horiz-adv-x="1243" arabic-form="final" 
d="M1258 0v97h-181c-15 167 -85 256 -209 269c-45 5 -93 -8 -146 -37c-67 -37 -119 -93 -155 -170l-1 111h-107l5 -205c0 -48 -16 -89 -48 -123c-31 -34 -69 -51 -113 -51c-45 0 -83 17 -114 51c-31 33 -47 74 -47 121c-1 60 -1 129 -1 206h-107l4 -204
c0 -79 26 -145 78 -200s114 -83 187 -83s136 28 187 83c37 39 61 84 71 135h697zM974 97h-353c60 117 134 175 221 175c7 0 15 -1 23 -2c47 -5 79 -36 96 -92c8 -23 12 -50 13 -81zM880 446v101h-96v-101h96z" />
    <glyph glyph-name="tahfinalarabic" unicode="&#x637;" horiz-adv-x="810" arabic-form="final" 
d="M819 0v97h-148c-16 180 -93 270 -231 270c-35 0 -68 -7 -99 -21c-38 -17 -68 -43 -90 -77l5 324h-103l1 -495h-95l-37 -98h797zM569 97h-334c42 117 109 175 202 175c88 0 132 -58 132 -175z" />
    <glyph glyph-name="zahfinalarabic" unicode="&#x638;" horiz-adv-x="810" arabic-form="final" 
d="M497 446v101h-97v-101h97zM819 0v97h-148c-16 180 -93 270 -231 270c-35 0 -68 -7 -99 -21c-38 -17 -68 -43 -90 -77l5 324h-103l1 -495h-95l-37 -98h797zM569 97h-334c42 117 109 175 202 175c89 0 133 -58 132 -175z" />
    <glyph glyph-name="ainfinalarabic" unicode="&#x639;" horiz-adv-x="569" arabic-form="final" 
d="M578 0v25v47v25h-80c-32 0 -55 19 -70 56h56v99h-90c-32 0 -59 7 -81 20c-27 17 -40 41 -40 72c0 44 31 75 74 75c25 0 49 -12 74 -35l55 74c-35 43 -82 64 -141 64c-44 0 -82 -13 -113 -38c-37 -30 -56 -71 -55 -123c0 -32 7 -60 21 -83c6 -10 13 -19 21 -26
c-53 -3 -95 -26 -128 -69c-31 -41 -47 -88 -47 -142c0 -56 20 -104 59 -143c40 -40 88 -60 144 -60h156v97h-148c-27 0 -52 10 -73 30c-23 21 -35 48 -35 80c0 67 40 108 111 108h71c12 -45 31 -80 58 -106c30 -31 67 -47 111 -47h90z" />
    <glyph glyph-name="ghainfinalarabic" unicode="&#x63a;" horiz-adv-x="569" arabic-form="final" 
d="M372 566v101h-96v-101h96zM578 0v25v47v25h-80c-32 0 -55 19 -70 56h56v99h-90c-32 0 -59 7 -81 20c-27 17 -40 41 -40 72c0 44 31 75 74 75c25 0 49 -12 74 -35l55 74c-35 43 -82 64 -141 64c-44 0 -82 -13 -113 -38c-37 -30 -56 -71 -55 -123c0 -32 7 -60 21 -83
c6 -10 13 -19 21 -26c-53 -3 -95 -26 -128 -69c-31 -41 -47 -88 -47 -142c0 -56 20 -104 59 -143c40 -40 88 -60 144 -60h156v97h-148c-27 0 -52 10 -73 30c-23 21 -35 48 -35 80c0 67 40 108 111 108h71c12 -45 31 -80 58 -106c30 -31 67 -47 111 -47h90z" />
    <glyph glyph-name="fehfinalarabic" unicode="&#x641;" horiz-adv-x="878" arabic-form="final" 
d="M658 514v101h-97v-101h97zM887 0v97h-56c-44 0 -79 3 -105 8c47 47 70 99 70 158c0 55 -19 98 -56 130c-35 29 -78 44 -129 44s-94 -15 -127 -44c-37 -32 -56 -75 -56 -130c0 -59 23 -112 70 -158c-26 -5 -48 -8 -67 -8h-121c-62 0 -108 31 -137 92
c-23 47 -34 105 -34 176h-105c-2 -97 15 -178 52 -243c47 -82 120 -123 219 -123c19 0 43 0 71 1h73c53 0 108 11 163 34c56 -23 111 -34 166 -34h109zM690 267c0 -31 -11 -61 -33 -89c-19 -22 -34 -33 -45 -33s-26 11 -45 33c-22 28 -33 58 -33 89c0 49 29 90 77 90
c49 0 79 -41 79 -90z" />
    <glyph glyph-name="qaffinalarabic" unicode="&#x642;" horiz-adv-x="733" arabic-form="final" 
d="M559 446v101h-97v-101h97zM414 446v101h-97v-101h97zM741 0v97h-132v111c0 97 -57 149 -172 158c-43 3 -83 -9 -119 -38c-43 -35 -66 -85 -68 -150c-2 -47 12 -88 42 -123c32 -37 73 -56 123 -56h34c18 1 31 1 39 1c-32 -70 -86 -105 -161 -105c-53 0 -97 20 -134 61
c-36 40 -54 89 -54 147v117h-105v-127c0 -95 28 -171 85 -228c54 -55 123 -82 207 -82c140 0 242 82 273 217h142zM501 96h-71c-43 0 -77 39 -76 88c3 67 33 107 80 107c21 0 38 -9 50 -26c10 -15 15 -26 15 -35c0 -8 1 -53 2 -134z" />
    <glyph glyph-name="kaffinalarabic" unicode="&#x643;" horiz-adv-x="875" arabic-form="final" 
d="M491 325v65h-44c-17 0 -31 4 -40 13c-7 7 -10 14 -10 23c1 21 10 30 26 29c11 -1 23 -7 34 -17l32 48c-20 24 -43 36 -69 36c-51 0 -88 -41 -88 -93c0 -16 4 -29 12 -39h-56l-30 -65h233zM884 0v25v47v25h-91c-19 0 -37 9 -54 26c-20 21 -31 47 -32 80
c-3 199 -4 348 -5 446h-106c5 -321 7 -486 7 -496c0 -37 -13 -56 -39 -56h-254c-62 0 -108 31 -137 92c-23 47 -34 105 -34 176h-105c-2 -97 15 -177 52 -242c47 -82 120 -123 219 -123h310c48 0 78 22 90 66c23 -44 54 -66 95 -66h84z" />
    <glyph glyph-name="lamfinalarabic" unicode="&#x644;" horiz-adv-x="734" arabic-form="final" 
d="M34 269c0 0 4 -198 4 -204c0 -154 120 -283 265 -283c144 0 263 126 265 277c23 -39 54 -59 91 -59h85c0 6 0 14 -1 25v72h-90c-43 0 -84 43 -86 92l-3 469h-107l7 -593c0 -93 -72 -174 -161 -174c-45 0 -82 17 -114 51c-54 58 -45 73 -48 217l-2 110h-105z" />
    <glyph glyph-name="meemfinalarabic" unicode="&#x645;" horiz-adv-x="765" arabic-form="final" 
d="M775 0v97c-86 -3 -139 40 -159 130c-9 42 -28 76 -59 103c-35 31 -77 46 -127 46c-89 0 -146 -38 -171 -115h-54h-40c-88 0 -132 -44 -131 -131l5 -347h105l-4 291c-1 28 2 48 7 59c9 16 26 24 51 24h52c7 -44 26 -81 58 -110c34 -31 77 -47 130 -47c75 0 128 29 159 87
c37 -59 91 -88 160 -87h18zM516 187c0 -64 -33 -101 -77 -101c-21 0 -40 8 -55 25c-17 19 -26 45 -26 76c0 32 8 57 23 76c14 17 32 25 53 25c22 0 41 -8 56 -25c17 -19 26 -45 26 -76z" />
    <glyph glyph-name="noonfinalarabic" unicode="&#x646;" horiz-adv-x="734" arabic-form="final" 
d="M347 364v101h-97v-101h97zM743 0v97h-90c-19 0 -36 8 -52 25c-19 19 -31 44 -34 74l-1 74h-107l5 -205c1 -47 -15 -88 -47 -122c-31 -35 -69 -52 -114 -52s-83 17 -114 51c-31 33 -47 74 -47 121c0 4 0 36 -1 96v110h-107c0 -11 1 -47 2 -109c1 -54 2 -86 2 -95
c0 -78 26 -145 78 -200s114 -83 187 -83c72 0 134 27 185 81c52 54 79 119 80 196c23 -39 53 -59 91 -59h84z" />
    <glyph glyph-name="hehfinalarabic" unicode="&#x647;" horiz-adv-x="517" arabic-form="final" 
d="M526 0v97h-102c-27 0 -41 17 -41 50l-1 283h-105v-36h-2c-23 29 -55 44 -97 44c-35 0 -66 -14 -93 -41c-34 -33 -51 -81 -51 -144c0 -97 40 -145 119 -145h125c0 -72 35 -108 106 -108h142zM278 205h-88c-31 0 -47 16 -49 48c-3 53 18 80 64 80c29 0 53 -15 72 -46z" />
    <glyph glyph-name="wawfinalarabic" unicode="&#x648;" horiz-adv-x="584" arabic-form="final" 
d="M594 0v97h-134v112c0 96 -63 158 -172 158c-103 0 -187 -75 -187 -188c0 -95 68 -179 167 -179h70c-32 -83 -111 -134 -202 -134c28 -35 50 -63 65 -83c127 11 218 93 249 217h144zM354 97h-71c-42 0 -76 39 -76 87c0 66 35 109 81 109c35 0 65 -39 65 -61
c0 -8 0 -53 1 -135z" />
    <glyph glyph-name="alefmaksurafinalarabic" unicode="&#x649;" horiz-adv-x="852" arabic-form="final" 
d="M860 0v97h-45c-42 0 -69 21 -81 64c-17 63 -37 112 -60 146c-44 62 -106 93 -185 93c-73 0 -131 -26 -174 -78c-44 -55 -66 -132 -66 -233h213l1 -23c0 -55 -18 -99 -54 -132c-31 -29 -66 -43 -107 -43c-38 0 -73 14 -105 43c-37 33 -55 77 -55 130c0 7 -1 24 -2 53
s-1 53 -1 70h-105c2 -57 3 -97 4 -122c0 -79 26 -145 78 -200s114 -83 187 -83s136 28 187 83c52 55 78 121 78 199v123h-192c23 69 62 104 118 105c73 1 122 -57 147 -174c7 -28 20 -53 40 -75c27 -29 59 -43 98 -43h81z" />
    <glyph glyph-name="yehfinalarabic" unicode="&#x64a;" horiz-adv-x="845" arabic-form="final" 
d="M860 0v97h-45c-42 0 -69 21 -81 64c-17 63 -37 112 -60 146c-44 62 -106 93 -185 93c-73 0 -131 -26 -174 -78c-44 -55 -66 -132 -66 -233h213l1 -23c0 -55 -18 -99 -54 -132c-31 -29 -66 -43 -107 -43c-38 0 -73 14 -105 43c-37 33 -55 77 -55 130c0 7 -1 24 -2 53
s-1 53 -1 70h-105c2 -57 3 -97 4 -122c0 -79 26 -145 78 -200s114 -83 187 -83s136 28 187 83c52 55 78 121 78 199v123h-192c23 69 62 104 118 105c73 1 122 -57 147 -174c7 -28 20 -53 40 -75c27 -29 59 -43 98 -43h81zM436 -393v101h-96v-101h96zM291 -393v101h-96v-101
h96z" />
    <glyph glyph-name="yehhamzaaboveinitialarabic" unicode="&#x626;" horiz-adv-x="311" arabic-form="initial" 
d="M213 446v64h-45c-17 0 -31 4 -40 13c-6 7 -9 15 -9 24c1 21 10 30 26 29c11 -1 22 -7 33 -17l32 48c-19 24 -42 36 -69 36c-51 0 -88 -41 -88 -93c0 -16 4 -29 13 -40h-57l-30 -64h234zM281 130c0 -1 -1 77 -2 235h-106c1 -25 1 -59 2 -100c1 -27 1 -60 1 -99
c0 -45 -29 -69 -68 -69h-118v-97h157c87 0 134 50 134 130z" />
    <glyph glyph-name="dadinitialarabic" unicode="&#x636;" horiz-adv-x="774" arabic-form="initial" 
d="M740 0c0 101 -11 179 -34 234c-34 79 -94 123 -179 132c-45 5 -95 -8 -148 -37c-69 -39 -122 -98 -157 -177v118h-105l2 -173h-128l-1 -97h750zM633 101v-4h-353c60 117 134 175 221 175c7 0 15 -1 23 -2c44 -5 75 -32 93 -81c11 -27 16 -57 16 -88zM539 446v101h-96
v-101h96z" />
    <glyph glyph-name="alefmaksurainitialarabic" unicode="&#x6cc;" horiz-adv-x="311" arabic-form="initial" 
d="M281 130c0 -1 -1 77 -2 235h-106c1 -25 1 -59 2 -100c1 -27 1 -60 1 -99c0 -45 -29 -69 -68 -69h-118v-97h157c87 0 134 50 134 130zM228 -152v101h-96v-101h96zM84 -152v101h-97v-101h97z" />
    <glyph glyph-name="alefmaksuramedialarabic" unicode="&#x6cc;" horiz-adv-x="454" arabic-form="medial" 
d="M463 0v25v47v25h-80c-20 0 -38 9 -55 28c-21 21 -31 49 -31 84c-2 67 -3 119 -3 156h-105l2 -198c0 -23 -10 -41 -31 -54c-16 -11 -33 -16 -52 -16h-118v-97h158c55 1 107 32 124 81c5 -15 14 -29 25 -43c21 -25 47 -38 77 -38h89zM340 -152v101h-96v-101h96zM196 -152
v101h-97v-101h97z" />
    <glyph glyph-name="sadinitialarabic" unicode="&#x635;" horiz-adv-x="774" arabic-form="initial" 
d="M740 0c0 101 -11 179 -34 234c-34 79 -94 123 -179 132c-45 5 -95 -8 -148 -37c-69 -39 -122 -98 -157 -177v118h-105l2 -173h-128l-1 -97h750zM633 101v-4h-353c60 117 134 175 221 175c7 0 15 -1 23 -2c44 -5 75 -32 93 -81c11 -27 16 -57 16 -88z" />
    <glyph glyph-name="pehinitialarabic" unicode="&#x67e;" horiz-adv-x="311" arabic-form="initial" 
d="M281 130c0 -1 -1 77 -2 235h-106c1 -25 1 -59 2 -100c1 -27 1 -60 1 -99c0 -45 -29 -69 -68 -69h-118v-97h157c87 0 134 50 134 130zM247 -171v101h-96v-101h96zM103 -171v101h-97v-101h97zM175 -303v101h-97v-101h97z" />
    <glyph glyph-name="tchehinitialarabic" unicode="&#x686;" horiz-adv-x="566" arabic-form="initial" 
d="M536 0c0 103 -19 187 -58 253c-49 81 -123 122 -220 122c-78 0 -137 -17 -177 -52l41 -82c28 23 72 34 133 34c95 0 153 -59 173 -177h-440v-98h548zM395 -171v101h-97v-101h97zM250 -171v101h-97v-101h97zM322 -303v101h-96v-101h96z" />
    <glyph glyph-name="vehinitialarabic" unicode="&#x6a4;" horiz-adv-x="416" arabic-form="initial" 
d="M264 720v101h-96v-101h96zM336 588v101h-96v-101h96zM191 588v101h-96v-101h96zM386 88v291c-1 97 -58 150 -171 159c-44 3 -84 -10 -119 -39c-43 -35 -66 -84 -68 -149c-2 -47 12 -88 42 -123c32 -37 73 -56 122 -56h86v-28c-1 -31 -14 -46 -40 -46h-249v-97h307
c61 0 91 29 90 88zM278 267h-70c-44 0 -78 40 -77 89c4 65 34 107 81 107c21 0 38 -9 50 -27c10 -14 15 -25 15 -34c0 -8 0 -53 1 -135z" />
    <glyph glyph-name="pehmedialarabic" unicode="&#x67e;" horiz-adv-x="454" arabic-form="medial" 
d="M463 0v25v47v25h-80c-20 0 -38 9 -55 28c-21 21 -31 49 -31 84c-2 67 -3 119 -3 156h-105l2 -198c0 -23 -10 -41 -31 -54c-16 -11 -33 -16 -52 -16h-118v-97h158c55 1 107 32 124 81c5 -15 14 -29 25 -43c21 -25 47 -38 77 -38h89zM345 -171v101h-97v-101h97zM200 -171
v101h-97v-101h97zM272 -303v101h-96v-101h96z" />
    <glyph glyph-name="tchehmedialarabic" unicode="&#x686;" horiz-adv-x="619" arabic-form="medial" 
d="M628 0v97h-98c-12 81 -38 146 -79 193c-48 57 -112 85 -193 85c-78 0 -137 -17 -177 -52l41 -82c28 23 72 34 133 34c96 0 154 -59 174 -178h-439v-97h520h118zM401 -171v101h-97v-101h97zM256 -171v101h-97v-101h97zM328 -303v101h-95v-101h95z" />
    <glyph glyph-name="vehmedialarabic" unicode="&#x6a4;" horiz-adv-x="500" arabic-form="medial" 
d="M279 646v100h-96v-100h96zM352 514v101h-97v-101h97zM207 514v101h-97v-101h97zM509 0v97h-56c-41 0 -76 3 -105 8c47 47 70 99 70 158c0 55 -19 98 -57 130c-34 29 -77 44 -128 44s-94 -15 -128 -44c-37 -32 -56 -75 -56 -130c0 -59 24 -112 71 -158
c-30 -6 -64 -9 -102 -8h-28v-97h81c53 0 108 11 163 34c55 -23 110 -34 165 -34h110zM312 267c0 -31 -11 -61 -33 -89c-18 -22 -33 -33 -45 -33s-27 11 -45 33c-23 28 -34 58 -34 89c0 49 30 90 79 90c24 0 43 -9 58 -28c13 -17 20 -37 20 -62z" />
    <glyph glyph-name="pehfinalarabic" unicode="&#x67e;" horiz-adv-x="876" arabic-form="final" 
d="M885 0v97h-91c-19 0 -38 9 -55 28c-20 21 -30 49 -31 84c-1 71 -1 123 -2 156h-106l3 -212c0 -37 -13 -56 -39 -56h-254c-62 0 -108 31 -137 92c-23 47 -34 105 -34 176h-105c-2 -97 15 -177 52 -242c47 -82 120 -123 219 -123h310c49 0 79 22 91 67
c23 -45 54 -67 95 -67h84zM537 -171v101h-97v-101h97zM392 -171v101h-96v-101h96zM465 -303v101h-96v-101h96z" />
    <glyph glyph-name="tchehfinalarabic" unicode="&#x686;" horiz-adv-x="642" arabic-form="final" 
d="M651 0c0 6 0 14 -1 25v47v25h-44c-17 0 -33 4 -47 13c-21 12 -32 30 -34 54c-9 76 -35 140 -77 191c-46 57 -103 85 -171 85c-60 0 -113 -19 -158 -58l38 -79c36 27 72 41 107 41c32 1 61 -9 86 -28c34 -25 55 -65 64 -120h-192c-55 0 -101 -22 -137 -65
c-34 -41 -51 -89 -51 -145s20 -104 59 -143c40 -40 88 -60 144 -60h140v97h-132c-27 0 -52 10 -73 29c-23 21 -35 48 -35 81c0 67 40 108 111 108h197c31 -65 81 -98 150 -98h56zM399 -3v72h-69v-72h69zM296 -3v72h-69v-72h69zM347 -97v72h-69v-72h69z" />
    <glyph glyph-name="vehfinalarabic" unicode="&#x6a4;" horiz-adv-x="878" arabic-form="final" 
d="M657 646v100h-97v-100h97zM729 514v101h-96v-101h96zM584 514v101h-96v-101h96zM900 0v97h-69c-41 0 -76 3 -105 8c47 47 70 99 70 158c0 55 -19 98 -56 130c-35 29 -78 44 -129 44s-94 -15 -127 -44c-37 -32 -56 -75 -56 -130c0 -59 23 -112 70 -158
c-26 -5 -48 -8 -67 -8h-121c-62 0 -108 31 -137 92c-23 47 -34 105 -34 176h-105c-2 -97 15 -178 52 -243c47 -82 120 -123 219 -123c19 0 43 0 71 1h73c53 0 108 11 163 34c56 -23 111 -34 166 -34h122zM690 267c0 -31 -11 -61 -33 -89c-19 -22 -34 -33 -45 -33
s-26 11 -45 33c-22 28 -33 58 -33 89c0 49 29 90 77 90c49 0 79 -41 79 -90z" />
    <glyph glyph-name="jehfinalarabic" unicode="&#x698;" horiz-adv-x="467" arabic-form="final" 
d="M-47 -134c29 -35 51 -63 66 -83c146 12 250 123 260 279c23 -41 54 -62 93 -62h104v97h-111c-42 0 -82 46 -87 101v167h-106v-283c0 -125 -93 -214 -219 -216zM207 578v100h-96v-100h96zM280 446v101h-97v-101h97zM135 446v101h-97v-101h97z" />
    <glyph glyph-name="hamzaarabic" unicode="&#x621;" horiz-adv-x="462" arabic-form="isolated" 
d="M437 0v98h-68c-45 0 -75 25 -75 53c0 25 16 47 36 47s38 -9 55 -26l48 74c-23 29 -70 56 -105 56c-76 0 -134 -63 -134 -143c0 -24 6 -44 18 -61h-86l-46 -98h357z" />
    <glyph glyph-name="alefarabic" unicode="&#x627;" horiz-adv-x="240" arabic-form="isolated" 
d="M210 0l-5 647h-105l5 -647h105z" />
    <glyph glyph-name="beharabic" unicode="&#x628;" horiz-adv-x="738" arabic-form="isolated" 
d="M708 78c0 140 -1 236 -2 287h-106l3 -212c0 -37 -13 -56 -39 -56h-254c-62 0 -108 31 -137 92c-23 47 -34 105 -34 176h-105c-2 -97 15 -177 52 -242c47 -82 120 -123 219 -123h310c51 0 86 30 93 78zM461 -171v101h-96v-101h96z" />
    <glyph glyph-name="tehmarbutaarabic" unicode="&#x629;" horiz-adv-x="438" arabic-form="isolated" 
d="M333 446v101h-97v-101h97zM188 446v101h-97v-101h97zM408 188c0 49 -16 92 -49 128c-36 40 -83 60 -142 60c-115 0 -183 -72 -183 -188c0 -50 17 -93 50 -129c35 -39 82 -59 141 -59c113 0 183 71 183 188zM303 187c0 -64 -33 -101 -77 -101c-21 0 -40 8 -55 25
c-17 19 -26 45 -26 76c0 32 7 57 22 76c15 17 33 25 55 25c21 0 39 -8 55 -25c17 -19 26 -45 26 -76z" />
    <glyph glyph-name="teharabic" unicode="&#x62a;" horiz-adv-x="738" arabic-form="isolated" 
d="M502 365v101h-96v-101h96zM357 365v101h-96v-101h96zM708 78c0 140 -1 236 -2 287h-106l3 -212c0 -37 -13 -56 -39 -56h-254c-62 0 -108 31 -137 92c-23 47 -34 105 -34 176h-105c-2 -97 15 -177 52 -242c47 -82 120 -123 219 -123h310c51 0 86 30 93 78z" />
    <glyph glyph-name="theharabic" unicode="&#x62b;" horiz-adv-x="738" arabic-form="isolated" 
d="M421 497v100h-97v-100h97zM493 365v100h-96v-100h96zM348 365v100h-96v-100h96zM708 78c0 140 -1 236 -2 287h-106l3 -212c0 -37 -13 -56 -39 -56h-254c-62 0 -108 31 -137 92c-23 47 -34 105 -34 176h-105c-2 -97 15 -177 52 -242c47 -82 120 -123 219 -123h310
c51 0 86 30 93 78z" />
    <glyph glyph-name="jeemarabic" unicode="&#x62c;" horiz-adv-x="552" arabic-form="isolated" 
d="M522 98c0 90 -20 167 -61 232c-45 73 -107 110 -184 110c-60 0 -112 -19 -157 -58l37 -79c37 27 72 41 107 41c33 1 62 -9 87 -28c34 -25 55 -65 63 -120h-192c-55 0 -100 -22 -137 -65c-34 -41 -51 -89 -51 -145s20 -104 59 -143c40 -40 88 -60 144 -60h140v97h-132
c-27 0 -52 10 -73 29c-23 21 -35 48 -35 81c0 67 40 108 111 108h274zM356 -63v101h-96v-101h96z" />
    <glyph glyph-name="haharabic" unicode="&#x62d;" horiz-adv-x="552" arabic-form="isolated" 
d="M522 98c0 90 -20 167 -61 232c-45 73 -107 110 -184 110c-60 0 -112 -19 -157 -58l37 -79c37 27 72 41 107 41c33 1 62 -9 87 -28c34 -25 55 -65 63 -120h-192c-55 0 -100 -22 -137 -65c-34 -41 -51 -89 -51 -145s20 -104 59 -143c40 -40 88 -60 144 -60h140v97h-132
c-27 0 -52 10 -73 29c-23 21 -35 48 -35 81c0 67 40 108 111 108h274z" />
    <glyph glyph-name="khaharabic" unicode="&#x62e;" horiz-adv-x="552" arabic-form="isolated" 
d="M359 492v101h-96v-101h96zM522 98c0 90 -20 167 -61 232c-45 73 -107 110 -184 110c-60 0 -112 -19 -157 -58l37 -79c37 27 72 41 107 41c33 1 62 -9 87 -28c34 -25 55 -65 63 -120h-192c-55 0 -100 -22 -137 -65c-34 -41 -51 -89 -51 -145s20 -104 59 -143
c40 -40 88 -60 144 -60h140v97h-132c-27 0 -52 10 -73 29c-23 21 -35 48 -35 81c0 67 40 108 111 108h274z" />
    <glyph glyph-name="dalarabic" unicode="&#x62f;" horiz-adv-x="561" arabic-form="isolated" 
d="M531 0c0 121 -23 213 -68 276c-43 59 -105 89 -184 89v-95c27 0 54 -14 81 -41c33 -33 52 -77 58 -132h-278l-50 -97h441z" />
    <glyph glyph-name="thalarabic" unicode="&#x630;" horiz-adv-x="561" arabic-form="isolated" 
d="M376 446v101h-97v-101h97zM531 0c0 121 -23 213 -68 276c-43 59 -105 89 -184 89v-95c27 0 54 -14 81 -41c33 -33 52 -77 58 -132h-278l-50 -97h441z" />
    <glyph glyph-name="reharabic" unicode="&#x631;" horiz-adv-x="310" arabic-form="isolated" 
d="M-47 -134c29 -35 51 -63 66 -83c79 6 142 38 189 95c48 57 72 128 72 215l-2 272h-107l2 -283c0 -64 -22 -116 -66 -157c-42 -39 -93 -58 -154 -59z" />
    <glyph glyph-name="zainarabic" unicode="&#x632;" horiz-adv-x="310" arabic-form="isolated" 
d="M171 446h97v101h-97v-101zM-47 -134c29 -35 51 -63 66 -83c79 6 142 38 189 95c48 57 72 128 72 215l-2 272h-107l2 -283c0 -64 -22 -116 -66 -157c-42 -39 -93 -58 -154 -59z" />
    <glyph glyph-name="seenarabic" unicode="&#x633;" horiz-adv-x="1122" arabic-form="isolated" 
d="M1088 150l-1 215h-106c1 -143 1 -212 1 -209c0 -45 -20 -67 -61 -67c-27 0 -48 9 -65 27c-19 19 -28 47 -29 84c-1 63 -1 108 -2 136h-105c1 -105 1 -165 1 -179c0 -45 -20 -68 -61 -68c-27 0 -48 9 -65 27c-15 16 -25 38 -28 66v2l-1 152h-105c0 -25 1 -115 3 -271
c0 -48 -16 -89 -48 -123c-31 -34 -69 -51 -113 -51c-45 0 -83 17 -114 51c-31 33 -47 74 -47 121c-1 60 -1 129 -1 206h-107l4 -204c0 -79 26 -145 78 -200s114 -83 187 -83s136 28 187 83c46 49 72 106 77 173c28 -35 67 -53 117 -52c63 1 106 28 128 79
c27 -54 72 -80 133 -79c95 2 142 57 143 164z" />
    <glyph glyph-name="sheenarabic" unicode="&#x634;" horiz-adv-x="1122" arabic-form="isolated" 
d="M1088 150l-1 215h-106c1 -143 1 -212 1 -209c0 -45 -20 -67 -61 -67c-27 0 -48 9 -65 27c-19 19 -28 47 -29 84c-1 63 -1 108 -2 136h-105c1 -105 1 -165 1 -179c0 -45 -20 -68 -61 -68c-27 0 -48 9 -65 27c-15 16 -25 38 -28 66v2l-1 152h-105c0 -25 1 -115 3 -271
c0 -48 -16 -89 -48 -123c-31 -34 -69 -51 -113 -51c-45 0 -83 17 -114 51c-31 33 -47 74 -47 121c-1 60 -1 129 -1 206h-107l4 -204c0 -79 26 -145 78 -200s114 -83 187 -83s136 28 187 83c46 49 72 106 77 173c28 -35 67 -53 117 -52c63 1 106 28 128 79
c27 -54 72 -80 133 -79c95 2 142 57 143 164zM892 446v101h-97v-101h97zM747 446v101h-97v-101h97zM819 578v100h-96v-100h96z" />
    <glyph glyph-name="sadarabic" unicode="&#x635;" horiz-adv-x="1125" arabic-form="isolated" 
d="M1086 0c0 101 -11 179 -34 234c-34 79 -94 123 -179 132c-45 5 -95 -8 -148 -37c-70 -39 -123 -99 -158 -180l-1 121h-107l5 -205c0 -48 -16 -89 -48 -123c-31 -34 -69 -51 -113 -51c-45 0 -83 17 -114 51c-31 33 -47 74 -47 121c-1 60 -1 129 -1 206h-107l4 -204
c0 -79 26 -145 78 -200s114 -83 187 -83s136 28 187 83c40 43 65 92 74 148v-13h522zM979 101v-4h-353c60 117 134 175 221 175c7 0 15 -1 23 -2c44 -5 75 -32 93 -81c11 -27 16 -57 16 -88z" />
    <glyph glyph-name="dadarabic" unicode="&#x636;" horiz-adv-x="1125" arabic-form="isolated" 
d="M1086 0c0 101 -11 179 -34 234c-34 79 -94 123 -179 132c-45 5 -95 -8 -148 -37c-70 -39 -123 -99 -158 -180l-1 121h-107l5 -205c0 -48 -16 -89 -48 -123c-31 -34 -69 -51 -113 -51c-45 0 -83 17 -114 51c-31 33 -47 74 -47 121c-1 60 -1 129 -1 206h-107l4 -204
c0 -79 26 -145 78 -200s114 -83 187 -83s136 28 187 83c40 43 65 92 74 148v-13h522zM979 101v-4h-353c60 117 134 175 221 175c7 0 15 -1 23 -2c44 -5 75 -32 93 -81c11 -27 16 -57 16 -88zM885 446v101h-96v-101h96z" />
    <glyph glyph-name="taharabic" unicode="&#x637;" horiz-adv-x="723" arabic-form="isolated" 
d="M693 0c0 244 -78 366 -235 366c-35 0 -69 -7 -101 -21c-37 -17 -67 -41 -90 -73l5 321h-103l1 -495l-104 -1l-32 -97h659zM585 97l-333 1c41 116 108 174 201 174c91 0 135 -58 132 -175z" />
    <glyph glyph-name="zaharabic" unicode="&#x638;" horiz-adv-x="723" arabic-form="isolated" 
d="M499 446v101h-96v-101h96zM693 0c0 244 -78 366 -235 366c-35 0 -69 -7 -101 -21c-37 -17 -67 -41 -90 -73l5 321h-103l2 -496h-105l-32 -97h659zM585 97h-333c42 117 109 175 201 175c87 0 131 -58 132 -175z" />
    <glyph glyph-name="ainarabic" unicode="&#x639;" horiz-adv-x="514" arabic-form="isolated" 
d="M484 153v99h-95c-77 0 -116 31 -116 92c0 44 31 75 74 75c25 0 49 -12 74 -35l55 74c-35 43 -82 64 -141 64c-44 0 -82 -13 -113 -38c-37 -30 -56 -71 -55 -123c0 -32 7 -60 21 -83c6 -10 13 -19 21 -26c-53 -3 -95 -26 -128 -69c-31 -41 -47 -88 -47 -142
c0 -56 20 -104 59 -143c40 -40 88 -60 144 -60h156v97h-148c-27 0 -52 10 -73 30c-23 21 -35 48 -35 80c0 67 40 108 111 108h236z" />
    <glyph glyph-name="ghainarabic" unicode="&#x63a;" horiz-adv-x="514" arabic-form="isolated" 
d="M384 566v101h-96v-101h96zM484 153v99h-95c-77 0 -116 31 -116 92c0 44 31 75 74 75c25 0 49 -12 74 -35l55 74c-35 43 -82 64 -141 64c-44 0 -82 -13 -113 -38c-37 -30 -56 -71 -55 -123c0 -32 7 -60 21 -83c6 -10 13 -19 21 -26c-53 -3 -95 -26 -128 -69
c-31 -41 -47 -88 -47 -142c0 -56 20 -104 59 -143c40 -40 88 -60 144 -60h156v97h-148c-27 0 -52 10 -73 30c-23 21 -35 48 -35 80c0 67 40 108 111 108h236z" />
    <glyph glyph-name="feharabic" unicode="&#x641;" horiz-adv-x="737" arabic-form="isolated" 
d="M586 589v101h-96v-101h96zM707 379c-1 97 -58 150 -172 159c-43 3 -83 -10 -119 -39c-43 -35 -65 -84 -68 -149c-1 -47 13 -88 42 -123c33 -37 74 -56 123 -56h86v-28c0 -31 -13 -46 -40 -46h-249c-62 0 -108 31 -137 92c-23 47 -34 105 -34 176h-105
c-2 -95 15 -176 50 -241c46 -83 117 -124 214 -124h317h1c51 0 81 22 89 66c1 3 2 107 2 313zM599 267h-71c-43 0 -77 40 -76 89c1 65 33 107 81 107c21 0 38 -9 50 -27c9 -14 14 -25 14 -34c0 -8 1 -53 2 -135z" />
    <glyph glyph-name="qafarabic" unicode="&#x642;" horiz-adv-x="640" arabic-form="isolated" 
d="M559 446v101h-97v-101h97zM414 446v101h-97v-101h97zM609 92v116c0 97 -57 149 -172 158c-43 3 -83 -9 -119 -38c-43 -35 -66 -85 -68 -150c-2 -47 12 -88 42 -123c32 -37 73 -56 123 -56h34c18 1 31 1 39 1c-32 -70 -86 -105 -161 -105c-53 0 -97 20 -134 61
c-36 40 -54 89 -54 147v117h-105v-127c0 -95 28 -171 85 -228c54 -55 123 -82 207 -82c85 0 154 28 205 85c52 57 78 131 78 224zM501 96h-71c-43 0 -77 39 -76 88c3 67 33 107 80 107c21 0 38 -9 50 -26c10 -15 15 -26 15 -35c0 -8 1 -53 2 -134z" />
    <glyph glyph-name="kafarabic" unicode="&#x643;" horiz-adv-x="739" arabic-form="isolated" 
d="M491 325v65h-44c-17 0 -31 4 -40 13c-7 7 -10 14 -10 23c1 21 10 30 26 29c11 -1 23 -7 34 -17l32 48c-20 24 -43 36 -69 36c-51 0 -88 -41 -88 -93c0 -16 4 -29 12 -39h-56l-30 -65h233zM708 78c0 166 -2 356 -6 571h-106c5 -321 7 -486 7 -496c0 -37 -13 -56 -39 -56
h-254c-62 0 -108 31 -137 92c-23 47 -34 105 -34 176h-105c-2 -97 15 -177 52 -242c47 -82 120 -123 219 -123h310c51 0 86 30 93 78z" />
    <glyph glyph-name="lamarabic" unicode="&#x644;" horiz-adv-x="598" arabic-form="isolated" 
d="M568 64l-4 594h-107l7 -593c0 -48 -16 -89 -48 -123c-31 -34 -69 -51 -113 -51c-45 0 -83 17 -114 51c-31 33 -47 74 -47 121c-1 60 -1 129 -1 206h-107l4 -204c0 -79 26 -145 78 -200s114 -83 187 -83s136 28 187 83c52 55 78 121 78 199z" />
    <glyph glyph-name="meemarabic" unicode="&#x645;" horiz-adv-x="651" arabic-form="isolated" 
d="M621 188c0 49 -16 92 -49 128c-36 40 -83 60 -142 60c-89 0 -146 -38 -171 -115h-54h-40c-88 0 -132 -44 -131 -131l5 -347h105l-4 291c-1 28 2 48 7 59c9 16 26 24 51 24h52c7 -44 26 -81 58 -110c34 -31 77 -47 130 -47c113 0 183 71 183 188zM516 187
c0 -64 -33 -101 -77 -101c-21 0 -40 8 -55 25c-17 19 -26 45 -26 76c0 32 8 57 23 76c14 17 32 25 53 25c22 0 41 -8 56 -25c17 -19 26 -45 26 -76z" />
    <glyph glyph-name="noonarabic" unicode="&#x646;" horiz-adv-x="598" arabic-form="isolated" 
d="M347 364v101h-97v-101h97zM568 64l-2 206h-107l5 -205c0 -48 -16 -89 -48 -123c-31 -34 -69 -51 -113 -51c-45 0 -83 17 -114 51c-31 33 -47 74 -47 121c-1 60 -1 129 -1 206h-107l4 -204c0 -79 26 -145 78 -200s114 -83 187 -83s136 28 187 83c52 55 78 121 78 199z" />
    <glyph glyph-name="heharabic" unicode="&#x647;" horiz-adv-x="438" arabic-form="isolated" 
d="M408 188c0 49 -16 92 -49 128c-36 40 -83 60 -142 60c-115 0 -183 -72 -183 -188c0 -50 17 -93 50 -129c35 -39 82 -59 141 -59c113 0 183 71 183 188zM303 187c0 -64 -33 -101 -77 -101c-21 0 -40 8 -55 25c-17 19 -26 45 -26 76c0 32 7 57 22 76c15 17 33 25 55 25
c21 0 39 -8 55 -25c17 -19 26 -45 26 -76z" />
    <glyph glyph-name="wawarabic" unicode="&#x648;" horiz-adv-x="490" arabic-form="isolated" 
d="M135 -134c28 -35 50 -63 65 -83c157 12 259 138 259 310v116c0 96 -62 158 -172 158c-103 0 -187 -75 -187 -188c0 -95 68 -179 167 -179h70c-32 -83 -111 -134 -202 -134zM353 98h-71c-42 0 -76 39 -76 86c0 68 35 110 81 110c35 0 65 -39 65 -61c0 -8 0 -53 1 -135z
" />
    <glyph glyph-name="alefmaksuraarabic" unicode="&#x649;" horiz-adv-x="598" arabic-form="isolated" 
d="M568 64l-3 123h-207c1 55 20 83 58 83c16 0 30 -9 43 -28l90 44c-33 61 -79 92 -138 92c-108 0 -166 -81 -166 -214c0 -24 2 -49 5 -74l212 -1l1 -23c0 -55 -18 -99 -54 -132c-31 -29 -66 -43 -107 -43c-38 0 -73 14 -105 43c-37 33 -55 77 -55 130c0 7 -1 24 -2 53
s-1 53 -1 70h-105c2 -57 3 -97 4 -122c0 -79 26 -145 78 -200s114 -83 187 -83s136 28 187 83c52 55 78 121 78 199z" />
    <glyph glyph-name="yeharabic" unicode="&#x64a;" horiz-adv-x="598" arabic-form="isolated" 
d="M568 64l-3 123h-207c1 55 20 83 58 83c16 0 30 -9 43 -28l90 44c-33 61 -79 92 -138 92c-108 0 -166 -81 -166 -214c0 -24 2 -49 5 -74l212 -1l1 -23c0 -55 -18 -99 -54 -132c-31 -29 -66 -43 -107 -43c-38 0 -73 14 -105 43c-37 33 -55 77 -55 130c0 7 -1 24 -2 53
s-1 53 -1 70h-105c2 -57 3 -97 4 -122c0 -79 26 -145 78 -200s114 -83 187 -83s136 28 187 83c52 55 78 121 78 199zM446 -393v101h-97v-101h97zM301 -393v101h-97v-101h97z" />
    <glyph glyph-name="fathatanarabic" unicode="&#xfe70;" arabic-form="isolated" 
d="M228 803l-165 -2c-25 -3 -42 -15 -53 -36h156c36 1 57 14 62 38zM203 739l-165 -4c-25 -3 -42 -14 -53 -34h157c35 1 56 13 61 38z" />
    <glyph glyph-name="dammatanarabic" unicode="&#xfe72;" arabic-form="isolated" 
d="M179 721c0 29 -25 55 -53 55c-9 0 -19 -3 -28 -9c-17 -11 -25 -27 -25 -48c0 -15 5 -29 14 -40c-16 -6 -35 -9 -58 -8c20 13 30 31 30 55c0 26 -12 43 -36 52c-5 1 -9 2 -14 2c-21 0 -37 -13 -50 -38c13 11 25 17 36 17c6 0 12 -2 17 -7c9 -7 13 -15 13 -24
c0 -17 -13 -35 -39 -56c8 -20 13 -30 14 -31c14 -1 29 -2 45 -2c87 0 134 34 134 82zM129 742c13 0 20 -7 20 -20s-11 -24 -33 -31c-8 10 -12 20 -12 29s4 15 12 19c5 2 9 3 13 3z" />
    <glyph glyph-name="kasratanarabic" unicode="&#xfe74;" arabic-form="isolated" 
d="M217 -216l-164 -3c-25 -3 -42 -15 -53 -35h157c35 1 55 13 60 38zM193 -281l-165 -4c-25 -3 -42 -14 -52 -34h156c35 1 55 13 61 38z" />
    <glyph glyph-name="fathaarabic" unicode="&#xfe76;" arabic-form="isolated" 
d="M226 781l-165 -3c-25 -3 -43 -15 -52 -35h156c35 1 56 14 61 38z" />
    <glyph glyph-name="dammaarabic" unicode="&#xfe78;" arabic-form="isolated" 
d="M182 770c0 27 -24 54 -53 54c-9 0 -19 -3 -28 -9c-17 -11 -25 -27 -25 -49c0 -15 5 -27 14 -38c-19 -11 -53 -11 -103 -2c9 -24 15 -36 16 -36c13 -3 28 -4 44 -4c88 0 135 36 135 84zM133 790c13 0 20 -6 20 -19c0 -14 -11 -25 -34 -32c-7 9 -11 19 -11 29
c0 9 4 15 12 19c4 2 8 3 13 3z" />
    <glyph glyph-name="kasraarabic" unicode="&#xfe7a;" arabic-form="isolated" 
d="M193 -281l-165 -4c-25 -3 -42 -14 -52 -34h156c35 1 55 13 61 38z" />
    <glyph glyph-name="shaddaarabic" unicode="&#xfe7c;" arabic-form="isolated" 
d="M211 821h-41l1 -70c0 -12 -5 -17 -16 -14c-13 3 -19 12 -19 29v55h-41v-55c0 -17 -6 -26 -18 -29c-11 -2 -16 3 -16 15v69h-40v-78c0 -31 16 -47 49 -47c16 0 28 4 35 13c3 2 6 9 11 20c11 -23 26 -35 47 -36c32 -1 48 16 48 50v78z" />
    <glyph glyph-name="sukunarabic" unicode="&#xfe7e;" arabic-form="isolated" 
d="M161 771c0 43 -28 79 -75 78s-70 -28 -69 -80c1 -41 31 -78 75 -78c47 1 70 28 69 80zM118 771c1 -26 -8 -39 -26 -39c-19 -1 -28 12 -29 38c-1 25 8 38 26 39c19 0 28 -13 29 -38z" />
    <glyph glyph-name="peharabic" unicode="&#x67e;" horiz-adv-x="738" arabic-form="isolated" 
d="M708 78c0 140 -1 236 -2 287h-106l3 -212c0 -37 -13 -56 -39 -56h-254c-62 0 -108 31 -137 92c-23 47 -34 105 -34 176h-105c-2 -97 15 -177 52 -242c47 -82 120 -123 219 -123h310c51 0 86 30 93 78zM529 -171v101h-96v-101h96zM384 -171v101h-96v-101h96zM457 -303v101
h-97v-101h97zM708 78c-7 -48 -42 -78 -93 -78h-310c-99 0 -172 41 -219 123c-37 65 -54 145 -52 242h105c0 -71 11 -129 34 -176c29 -61 75 -92 137 -92h254c26 0 39 9 39 28s-1 99 -3 240h106c1 -66 2 -162 2 -287zM708 78c0 140 -1 236 -2 287h-106l3 -212
c0 -37 -13 -56 -39 -56h-254c-62 0 -108 31 -137 92c-23 47 -34 105 -34 176h-105c-2 -97 15 -177 52 -242c47 -82 120 -123 219 -123h310c51 0 86 30 93 78z" />
    <glyph glyph-name="tcheharabic" unicode="&#x686;" horiz-adv-x="552" arabic-form="isolated" 
d="M399 -3v72h-69v-72h69zM522 98c0 90 -20 167 -61 232c-45 73 -107 110 -184 110c-60 0 -112 -19 -157 -58l37 -79c37 27 72 41 107 41c33 1 62 -9 87 -28c34 -25 55 -65 63 -120h-192c-55 0 -100 -22 -137 -65c-34 -41 -51 -89 -51 -145s20 -104 59 -143
c40 -40 88 -60 144 -60h140v97h-132c-27 0 -52 10 -73 29c-23 21 -35 48 -35 81c0 67 40 108 111 108h274zM296 -3v72h-69v-72h69zM347 -97v72h-69v-72h69z" />
    <glyph glyph-name="veharabic" unicode="&#x6a4;" horiz-adv-x="737" arabic-form="isolated" 
d="M584 721v100h-96v-100h96zM657 589v101h-97v-101h97zM512 589v101h-97v-101h97zM707 379c-1 97 -58 150 -172 159c-43 3 -83 -10 -119 -39c-43 -35 -65 -84 -68 -149c-1 -47 13 -88 42 -123c33 -37 74 -56 123 -56h86v-28c0 -31 -13 -46 -40 -46h-249
c-62 0 -108 31 -137 92c-23 47 -34 105 -34 176h-105c-2 -95 15 -176 50 -241c46 -83 117 -124 214 -124h317h1c51 0 81 22 89 66c1 3 2 107 2 313zM599 267h-71c-43 0 -77 40 -76 89c1 65 33 107 81 107c21 0 38 -9 50 -27c9 -14 14 -25 14 -34c0 -8 1 -53 2 -135z" />
    <glyph glyph-name="jeharabic" unicode="&#x698;" horiz-adv-x="310" arabic-form="isolated" 
d="M-47 -134c29 -35 51 -63 66 -83c79 6 142 38 189 95c48 57 72 128 72 215l-2 272h-107l2 -283c0 -64 -22 -116 -66 -157c-42 -39 -93 -58 -154 -59zM207 578v100h-96v-100h96zM280 446v101h-97v-101h97zM135 446v101h-97v-101h97z" />
    <glyph glyph-name="alefwaslafinal" unicode="&#x671;" horiz-adv-x="322" arabic-form="final" 
d="M282 708c0 84 -27 131 -84 131c-38 0 -79 -31 -99 -76v42h-33v-61h-28v-36h244zM240 744h-119c25 37 51 55 79 55c27 0 40 -18 40 -55zM331 0v97h-75c-28 0 -46 27 -46 63l-4 487h-106l3 -529c0 -70 46 -118 105 -118h123z" />
    <glyph glyph-name="alefwaslaisolated" unicode="&#x671;" horiz-adv-x="240" arabic-form="isolated" 
d="M282 708c0 84 -27 131 -84 131c-38 0 -79 -31 -99 -76v42h-33v-61h-28v-36h244zM240 744h-119c25 37 51 55 79 55c27 0 40 -18 40 -55zM210 0l-5 647h-105l5 -647h105z" />
    <glyph glyph-name=".notdef" horiz-adv-x="500" 
d="M63 0h375v750h-375v-750zM125 63v625h250v-625h-250z" />
    <glyph glyph-name=".null" 
 />
    <glyph glyph-name="CR" horiz-adv-x="333" 
 />
    <glyph glyph-name="space" unicode=" " horiz-adv-x="220" 
 />
    <glyph glyph-name="_4" horiz-adv-x="280" 
 />
    <glyph glyph-name="_13" horiz-adv-x="273" 
 />
    <glyph glyph-name="kashidaautoarabic" horiz-adv-x="119" 
d="M128 0v97h-138v-97h138z" />
    <glyph glyph-name="decimalseparatorarabic" unicode="&#x66b;" horiz-adv-x="166" 
d="M4 -123h34c63 58 94 106 94 145v108h-98v-97c22 2 33 -9 33 -33c1 -43 -20 -84 -63 -123z" />
    <glyph glyph-name="thousandsseparatorarabic" unicode="&#x66c;" horiz-adv-x="166" 
d="M4 -123h34c63 58 94 106 94 145v108h-98v-97c22 2 33 -9 33 -33c1 -43 -20 -84 -63 -123z" />
    <glyph glyph-name="nonbreakingspace" horiz-adv-x="623" 
 />
    <glyph glyph-name="guillemotleft" unicode="&#xab;" horiz-adv-x="383" 
d="M333 325l-68 18c-28 -31 -48 -59 -60 -84c-15 -31 -22 -64 -22 -100c0 -60 26 -120 77 -180l68 21c-49 59 -74 111 -74 157c0 60 26 116 79 168zM198 325l-68 18c-27 -31 -47 -59 -59 -84c-15 -31 -23 -64 -23 -100c0 -60 26 -120 78 -180l68 21c-50 59 -75 111 -75 157
c0 60 26 116 79 168z" />
    <glyph glyph-name="guillemotright" unicode="&#xbb;" horiz-adv-x="383" 
d="M333 159c0 36 -8 69 -23 100c-12 25 -32 53 -59 84l-68 -18c53 -52 79 -108 79 -168c0 -46 -25 -98 -75 -157l68 -21c52 60 78 120 78 180zM198 159c0 36 -7 69 -22 100c-12 25 -32 53 -60 84l-68 -18c53 -52 79 -108 79 -168c0 -46 -25 -98 -74 -157l68 -21
c51 60 77 120 77 180z" />
    <glyph glyph-name="divide" unicode="&#xf7;" horiz-adv-x="517" 
d="M321 385c0 35 -29 62 -62 62c-35 0 -62 -27 -62 -62s27 -62 62 -62c33 0 62 27 62 62zM476 171v94h-436v-94h436zM321 51c0 35 -29 62 -62 62c-35 0 -62 -27 -62 -62s27 -62 62 -62c33 0 62 27 62 62z" />
    <glyph glyph-name="exclam" unicode="!" horiz-adv-x="285" 
d="M195 146l-5 451h-95l5 -451h95zM194 -1v98h-94v-98h94z" />
    <glyph glyph-name="quotedbl" unicode="&#x22;" horiz-adv-x="298" 
d="M134 418h-67v201h67v-201zM234 418h-67v201h67v-201z" />
    <glyph glyph-name="dollar" unicode="$" horiz-adv-x="479" 
d="M420 159c-1 45 -14 82 -40 110c-18 20 -48 41 -91 62l-3 187c27 -2 58 -13 92 -33l31 77c-42 29 -83 44 -124 47l-1 55h-79l1 -58c-41 -6 -74 -23 -101 -52c-27 -28 -40 -62 -39 -102c0 -77 47 -136 141 -176l2 -196c-47 6 -84 19 -112 38l-37 -75c49 -33 99 -50 148 -51
v-81h81l-1 80c43 9 77 30 100 63c21 31 32 66 32 105zM207 378c-33 15 -49 37 -50 67c0 40 16 63 48 70zM334 153c1 -28 -17 -63 -44 -74l-2 145c28 -14 43 -38 46 -71z" />
    <glyph glyph-name="percentarabic" unicode="&#x66a;" horiz-adv-x="505" 
d="M253 490v103h-99v-103h99zM490 581l-84 57l-379 -629l84 -57zM362 12v104h-99v-104h99z" />
    <glyph glyph-name="quotesingle" unicode="'" horiz-adv-x="162" 
d="M184 809h-120l-5 -205h33z" />
    <glyph glyph-name="parenright" unicode=")" horiz-adv-x="342" 
d="M320 255c0 73 -15 141 -46 203c-24 49 -64 106 -121 170l-96 -40c47 -47 85 -98 112 -154c31 -62 46 -124 46 -185c0 -94 -50 -199 -149 -316l97 -40c105 121 157 241 157 362z" />
    <glyph glyph-name="parenleft" unicode="(" horiz-adv-x="342" 
d="M285 588l-96 40c-57 -64 -97 -121 -121 -170c-31 -62 -46 -130 -46 -203c0 -121 52 -241 157 -362l98 40c-99 117 -149 222 -149 316c0 61 15 123 45 185c28 56 65 107 112 154z" />
    <glyph glyph-name="multiply" unicode="&#xd7;" horiz-adv-x="517" 
d="M468 75l-143 143l143 143l-66 67l-143 -144l-143 144l-67 -67l143 -143l-143 -143l67 -66l143 143l143 -143z" />
    <glyph glyph-name="plus" unicode="+" horiz-adv-x="517" 
d="M477 171v94h-171v171h-94v-171h-171v-94h171v-172h94v172h171z" />
    <glyph glyph-name="commaarabic" unicode="&#x60c;" horiz-adv-x="222" 
d="M172 253h-34c-63 -58 -94 -106 -94 -145v-109h98v97c-22 -2 -33 9 -33 34c-1 43 20 84 63 123z" />
    <glyph glyph-name="hyphen" unicode="-" horiz-adv-x="517" 
d="M477 190v94h-436v-94h436z" />
    <glyph glyph-name="period" unicode="." horiz-adv-x="173" 
d="M123 -1v98h-94v-98h94z" />
    <glyph glyph-name="slash" unicode="/" horiz-adv-x="383" 
d="M383 597l-89 43l-263 -618l89 -44z" />
    <glyph glyph-name="zeroarabic" unicode="&#x660;" horiz-adv-x="295" 
d="M207 119v138l-119 -52v-138z" />
    <glyph glyph-name="onearabic" unicode="&#x661;" horiz-adv-x="240" 
d="M174 51l-4 568h-104l5 -619z" />
    <glyph glyph-name="twoarabic" unicode="&#x662;" horiz-adv-x="480" 
d="M414 533v87h-152c-68 0 -117 -14 -147 -42c-33 -29 -49 -78 -48 -146l6 -432l104 53c-3 212 -4 320 -4 324c-1 59 9 99 28 122s56 34 110 34h103z" />
    <glyph glyph-name="threearabic" unicode="&#x663;" horiz-adv-x="551" 
d="M485 448c0 45 -1 102 -2 172h-88c1 -56 1 -98 1 -125c1 -24 0 -40 -1 -47c-3 -21 -11 -31 -25 -31c-23 0 -31 12 -40 23c0 50 -1 110 -2 180h-89c1 -56 2 -98 2 -125c1 -24 0 -40 -1 -47c-3 -21 -11 -31 -25 -31c-23 0 -32 14 -41 23l-3 179h-105l5 -620l105 54l-2 293h1
c15 -16 35 -24 60 -24c40 0 65 15 75 45c19 -29 47 -43 82 -43s60 13 74 38c13 23 19 52 19 86z" />
    <glyph glyph-name="fourarabic" unicode="&#x664;" horiz-adv-x="464" 
d="M398 97c-44 1 -77 1 -100 0c-29 -1 -55 4 -77 14c-31 15 -47 40 -48 75c-1 49 17 83 55 103c28 14 71 21 130 21c0 59 0 90 -1 91c-37 -4 -61 -6 -71 -6c-61 0 -92 19 -93 58c-1 47 28 73 85 80c25 3 52 3 80 1v86c-13 3 -29 4 -48 4s-39 -1 -59 -4
c-49 -7 -89 -27 -121 -60c-31 -33 -47 -71 -47 -114c0 -31 10 -57 31 -78c17 -17 30 -25 41 -23c-60 -32 -89 -86 -88 -163c0 -52 19 -96 58 -131s91 -52 154 -52c35 0 55 0 62 1z" />
    <glyph glyph-name="fivearabic" unicode="&#x665;" horiz-adv-x="506" 
d="M440 248c0 42 -15 86 -45 132c-35 55 -83 96 -144 121c-59 -24 -105 -64 -140 -119c-30 -47 -45 -91 -45 -134c0 -103 62 -174 154 -182c12 -3 33 -3 62 0c46 4 84 23 113 57c30 34 45 76 45 125zM340 263c0 -27 -7 -49 -21 -66c-12 -16 -27 -26 -45 -29
c-19 -3 -33 -3 -43 0c-18 3 -33 13 -45 29c-13 17 -20 39 -19 66c0 24 9 50 27 77c18 28 38 47 59 57c21 -9 40 -28 59 -57c19 -28 28 -54 28 -77z" />
    <glyph glyph-name="sixarabic" unicode="&#x666;" horiz-adv-x="480" 
d="M414 53c-1 241 -2 369 -3 383c-1 68 -17 116 -50 144c-31 27 -81 40 -149 40h-146v-87h87c56 0 95 -10 117 -31c24 -23 36 -63 37 -121l2 -381z" />
    <glyph glyph-name="sevenarabic" unicode="&#x667;" horiz-adv-x="552" 
d="M486 546l-85 76l-125 -423l-125 423l-85 -76l160 -545h100z" />
    <glyph glyph-name="eightarabic" unicode="&#x668;" horiz-adv-x="552" 
d="M486 78l-160 544h-100l-160 -544l85 -77l125 422l125 -422z" />
    <glyph glyph-name="ninearabic" unicode="&#x669;" horiz-adv-x="514" 
d="M448 51l-1 330c-1 161 -67 241 -199 241c-50 0 -93 -18 -129 -54c-35 -36 -53 -79 -53 -129c0 -111 64 -179 172 -182c39 -1 74 12 106 38l2 -295zM334 434c0 -21 -7 -39 -21 -56c-15 -18 -35 -27 -58 -27c-43 -1 -82 36 -82 83c-1 57 30 94 82 94c49 0 79 -41 79 -94z
" />
    <glyph glyph-name="colon" unicode=":" horiz-adv-x="201" 
d="M151 176v98h-94v-98h94zM151 -1v98h-94v-98h94z" />
    <glyph glyph-name="semicolonarabic" unicode="&#x61b;" horiz-adv-x="233" 
d="M183 429h-35c-63 -58 -94 -106 -94 -145v-108h99v96c-22 -1 -33 10 -34 34c-1 43 21 84 64 123zM151 -1v98h-94v-98h94z" />
    <glyph glyph-name="greater" unicode="&#x3e;" horiz-adv-x="542" 
d="M418 223l-234 234h-99l234 -234l-234 -233h99z" />
    <glyph glyph-name="equal" unicode="=" horiz-adv-x="590" 
d="M513 262v94h-436v-94h436zM513 90v94h-436v-94h436z" />
    <glyph glyph-name="less" unicode="&#x3c;" horiz-adv-x="542" 
d="M467 -10l-234 233l234 234h-109l-234 -234l234 -233h109z" />
    <glyph glyph-name="questionarabic" unicode="&#x61f;" horiz-adv-x="415" 
d="M375 535c-56 56 -113 84 -172 84c-50 0 -94 -16 -131 -48c-38 -34 -57 -76 -57 -127c0 -43 14 -79 41 -108c27 -21 53 -42 78 -63c29 -23 43 -49 43 -78v-49h93v45c0 45 -13 83 -40 114c-5 7 -30 29 -75 67c-26 22 -39 44 -39 67c0 27 11 49 33 64c17 12 36 18 55 18
c41 0 78 -18 109 -54zM270 -1v98h-94v-98h94z" />
    <glyph glyph-name="asteriskarabic" unicode="&#x66d;" horiz-adv-x="500" 
d="M447 245l-9 20l-138 -20l-38 143h-20l-39 -143l-138 21l-9 -21l117 -93l-52 -139l17 -13l114 94l113 -94l17 15l-51 138z" />
    <glyph glyph-name="bracketright" unicode="]" horiz-adv-x="287" 
d="M267 -88l-5 697h-217v-88h112l5 -521h-114v-88h219z" />
    <glyph glyph-name="backslash" unicode="\" horiz-adv-x="383" 
d="M367 22l-263 618l-88 -43l262 -619z" />
    <glyph glyph-name="bracketleft" unicode="[" horiz-adv-x="287" 
d="M206 -88v88h-75l-5 521h77v88h-183l5 -697h181z" />
    <glyph glyph-name="underscore" unicode="_" horiz-adv-x="382" 
d="M365 -90v74h-349v-74h349z" />
    <glyph glyph-name="tatweelarabic" unicode="&#x640;" horiz-adv-x="212" 
d="M221 97h-231v-97h231v97z" />
    <glyph glyph-name="braceright" unicode="}" horiz-adv-x="352" 
d="M35 -74c0 5 0 10 1 13c86 1 122 16 116 77v163c0 29 19 55 58 80c-39 30 -58 59 -58 80v163c0 33 -9 54 -24 63c-15 11 -45 17 -91 17v7c0 7 0 15 1 23c123 0 200 -32 200 -110v-163c0 -15 5 -30 17 -45c13 -17 30 -27 49 -35h2c-46 -30 -68 -58 -68 -80v-163
c0 -37 -11 -62 -34 -78c-22 -19 -61 -27 -115 -27l-53 2c-1 4 -1 6 -1 13z" />
    <glyph glyph-name="bar" unicode="|" horiz-adv-x="130" 
d="M34 -97h63v715h-63v-715z" />
    <glyph glyph-name="braceleft" unicode="{" horiz-adv-x="352" 
d="M307 -74c0 5 0 10 -1 13c-86 1 -122 16 -116 77v163c0 29 -19 55 -58 80c39 30 58 59 58 80v163c0 33 9 54 24 63c15 11 45 17 91 17v7c0 7 0 15 -1 23c-123 0 -200 -32 -200 -110v-163c0 -15 -5 -30 -17 -45c-13 -17 -30 -27 -49 -35h-2c46 -30 68 -58 68 -80v-163
c0 -37 11 -62 34 -78c22 -19 61 -27 115 -27l53 2c1 4 1 6 1 13z" />
    <glyph glyph-name="zero" unicode="0" horiz-adv-x="295" 
d="M207 119v138l-119 -52v-138z" />
    <glyph glyph-name="one" unicode="1" horiz-adv-x="240" 
d="M174 51l-4 568h-104l5 -619z" />
    <glyph glyph-name="two" unicode="2" horiz-adv-x="480" 
d="M414 533v87h-152c-68 0 -117 -14 -147 -42c-33 -29 -49 -78 -48 -146l6 -432l104 53c-3 212 -4 320 -4 324c-1 59 9 99 28 122s56 34 110 34h103z" />
    <glyph glyph-name="three" unicode="3" horiz-adv-x="551" 
d="M485 448c0 45 -1 102 -2 172h-88c1 -56 1 -98 1 -125c1 -24 0 -40 -1 -47c-3 -21 -11 -31 -25 -31c-23 0 -31 12 -40 23c0 50 -1 110 -2 180h-89c1 -56 2 -98 2 -125c1 -24 0 -40 -1 -47c-3 -21 -11 -31 -25 -31c-23 0 -32 14 -41 23l-3 179h-105l5 -620l105 54l-2 293h1
c15 -16 35 -24 60 -24c40 0 65 15 75 45c19 -29 47 -43 82 -43s60 13 74 38c13 23 19 52 19 86z" />
    <glyph glyph-name="four" unicode="4" horiz-adv-x="464" 
d="M398 97c-44 1 -77 1 -100 0c-29 -1 -55 4 -77 14c-31 15 -47 40 -48 75c-1 49 17 83 55 103c28 14 71 21 130 21c0 59 0 90 -1 91c-37 -4 -61 -6 -71 -6c-61 0 -92 19 -93 58c-1 47 28 73 85 80c25 3 52 3 80 1v86c-13 3 -29 4 -48 4s-39 -1 -59 -4
c-49 -7 -89 -27 -121 -60c-31 -33 -47 -71 -47 -114c0 -31 10 -57 31 -78c17 -17 30 -25 41 -23c-60 -32 -89 -86 -88 -163c0 -52 19 -96 58 -131s91 -52 154 -52c35 0 55 0 62 1z" />
    <glyph glyph-name="five" unicode="5" horiz-adv-x="506" 
d="M440 248c0 42 -15 86 -45 132c-35 55 -83 96 -144 121c-59 -24 -105 -64 -140 -119c-30 -47 -45 -91 -45 -134c0 -103 62 -174 154 -182c12 -3 33 -3 62 0c46 4 84 23 113 57c30 34 45 76 45 125zM340 263c0 -27 -7 -49 -21 -66c-12 -16 -27 -26 -45 -29
c-19 -3 -33 -3 -43 0c-18 3 -33 13 -45 29c-13 17 -20 39 -19 66c0 24 9 50 27 77c18 28 38 47 59 57c21 -9 40 -28 59 -57c19 -28 28 -54 28 -77z" />
    <glyph glyph-name="six" unicode="6" horiz-adv-x="480" 
d="M414 53c-1 241 -2 369 -3 383c-1 68 -17 116 -50 144c-31 27 -81 40 -149 40h-146v-87h87c56 0 95 -10 117 -31c24 -23 36 -63 37 -121l2 -381z" />
    <glyph glyph-name="seven" unicode="7" horiz-adv-x="552" 
d="M486 546l-85 76l-125 -423l-125 423l-85 -76l160 -545h100z" />
    <glyph glyph-name="eight" unicode="8" horiz-adv-x="552" 
d="M486 78l-160 544h-100l-160 -544l85 -77l125 422l125 -422z" />
    <glyph glyph-name="nine" unicode="9" horiz-adv-x="514" 
d="M448 51l-1 330c-1 161 -67 241 -199 241c-50 0 -93 -18 -129 -54c-35 -36 -53 -79 -53 -129c0 -111 64 -179 172 -182c39 -1 74 12 106 38l2 -295zM334 434c0 -21 -7 -39 -21 -56c-15 -18 -35 -27 -58 -27c-43 -1 -82 36 -82 83c-1 57 30 94 82 94c49 0 79 -41 79 -94z
" />
    <glyph glyph-name="quotedblleft" unicode="&#x201c;" horiz-adv-x="281" 
d="M283 711h-35c-62 -57 -93 -106 -93 -146v-107h98v96c-22 -1 -33 10 -34 34c-1 43 21 84 64 123zM155 711h-34c-62 -57 -93 -106 -93 -146c0 -11 0 -28 -1 -50v-57h98v96c-22 -1 -33 10 -34 34c0 43 21 84 64 123z" />
    <glyph glyph-name="quotedblright" unicode="&#x201d;" horiz-adv-x="281" 
d="M257 603v108h-98v-97c22 2 33 -9 33 -34c1 -43 -20 -83 -63 -122h35c62 57 93 105 93 145zM129 603v108h-97v-97c21 2 32 -9 33 -34c1 -43 -20 -83 -63 -122h33c63 57 94 105 94 145z" />
    <glyph glyph-name="hyphenminus" unicode="&#x2010;" horiz-adv-x="454" 
d="M24 192h421v39h-421v-39z" />
    <glyph glyph-name="delete" unicode="&#x2421;" horiz-adv-x="709" 
d="M674 57v31h-127v229h-36v-260h163zM479 57v31h-159v88h143v31h-143v79h153v31h-189v-260h195zM253 189c0 71 -26 112 -79 124c-10 3 -25 4 -46 4h-90v-260h95c15 0 29 2 41 5c53 13 79 55 79 127zM218 189c0 -37 -9 -65 -26 -83c-13 -12 -34 -18 -63 -18h-56v198h55
c20 0 35 -2 44 -5c31 -12 46 -43 46 -92z" />
    <glyph glyph-name="nbspace" unicode="&#xa0;" horiz-adv-x="623" 
 />
    <glyph glyph-name="ornaterightparenthesis" unicode="&#xfd3f;" horiz-adv-x="342" 
d="M320 255c0 73 -15 141 -46 203c-24 49 -64 106 -121 170l-96 -40c47 -47 85 -98 112 -154c31 -62 46 -124 46 -185c0 -94 -50 -199 -149 -316l97 -40c105 121 157 241 157 362z" />
    <glyph glyph-name="ornateleftparenthesis" unicode="&#xfd3e;" horiz-adv-x="342" 
d="M285 588l-96 40c-57 -64 -97 -121 -121 -170c-31 -62 -46 -130 -46 -203c0 -121 52 -241 157 -362l98 40c-99 117 -149 222 -149 316c0 61 15 123 45 185c28 56 65 107 112 154z" />
    <glyph glyph-name="righttoleft" unicode="&#x200f;" horiz-adv-x="20" 
d="M20 0v722h-96l36 36l-14 14l-60 -61l60 -61l14 14l-38 38h78v-702h20z" />
    <glyph glyph-name="lefttoright" unicode="&#x200e;" horiz-adv-x="20" 
d="M134 711l-60 61l-14 -14l36 -36h-96v-722h20v702h78l-38 -38l14 -14z" />
    <glyph glyph-name="zerojoin" unicode="&#x200d;" horiz-adv-x="20" 
d="M71 663l-47 48l47 47l-14 14l-47 -48l-47 48l-14 -14l48 -47l-48 -48l14 -13l37 37v-687h20v687l37 -37z" />
    <glyph glyph-name="zeronojoin" unicode="&#x200c;" horiz-adv-x="20" 
d="M20 0v722h-20v-722h20z" />
    <glyph glyph-name="extendedarabicindicdigitnine" unicode="&#x6f9;" horiz-adv-x="514" 
d="M448 51l-1 330c-1 161 -67 241 -199 241c-50 0 -93 -18 -129 -54c-35 -36 -53 -79 -53 -129c0 -111 64 -179 172 -182c39 -1 74 12 106 38l2 -295zM334 434c0 -21 -7 -39 -21 -56c-15 -18 -35 -27 -58 -27c-43 -1 -82 36 -82 83c-1 57 30 94 82 94c49 0 79 -41 79 -94z
" />
    <glyph glyph-name="extendedarabicindicdigiteight" unicode="&#x6f8;" horiz-adv-x="552" 
d="M486 78l-160 544h-100l-160 -544l85 -77l125 422l125 -422z" />
    <glyph glyph-name="extendedarabicindicdigitseven" unicode="&#x6f7;" horiz-adv-x="552" 
d="M486 546l-85 76l-125 -423l-125 423l-85 -76l160 -545h100z" />
    <glyph glyph-name="extendedarabicindicdigitsix" unicode="&#x6f6;" horiz-adv-x="480" 
d="M414 53c-1 241 -2 369 -3 383c-1 68 -17 116 -50 144c-31 27 -81 40 -149 40h-146v-87h87c56 0 95 -10 117 -31c24 -23 36 -63 37 -121l2 -381z" />
    <glyph glyph-name="extendedarabicindicdigitfive" unicode="&#x6f5;" horiz-adv-x="506" 
d="M440 248c0 42 -15 86 -45 132c-35 55 -83 96 -144 121c-59 -24 -105 -64 -140 -119c-30 -47 -45 -91 -45 -134c0 -103 62 -174 154 -182c12 -3 33 -3 62 0c46 4 84 23 113 57c30 34 45 76 45 125zM340 263c0 -27 -7 -49 -21 -66c-12 -16 -27 -26 -45 -29
c-19 -3 -33 -3 -43 0c-18 3 -33 13 -45 29c-13 17 -20 39 -19 66c0 24 9 50 27 77c18 28 38 47 59 57c21 -9 40 -28 59 -57c19 -28 28 -54 28 -77z" />
    <glyph glyph-name="extendedarabicindicdigitfour" unicode="&#x6f4;" horiz-adv-x="464" 
d="M398 97c-44 1 -77 1 -100 0c-29 -1 -55 4 -77 14c-31 15 -47 40 -48 75c-1 49 17 83 55 103c28 14 71 21 130 21c0 59 0 90 -1 91c-37 -4 -61 -6 -71 -6c-61 0 -92 19 -93 58c-1 47 28 73 85 80c25 3 52 3 80 1v86c-13 3 -29 4 -48 4s-39 -1 -59 -4
c-49 -7 -89 -27 -121 -60c-31 -33 -47 -71 -47 -114c0 -31 10 -57 31 -78c17 -17 30 -25 41 -23c-60 -32 -89 -86 -88 -163c0 -52 19 -96 58 -131s91 -52 154 -52c35 0 55 0 62 1z" />
    <glyph glyph-name="extendedarabicindicdigitthree" unicode="&#x6f3;" horiz-adv-x="551" 
d="M485 448c0 45 -1 102 -2 172h-88c1 -56 1 -98 1 -125c1 -24 0 -40 -1 -47c-3 -21 -11 -31 -25 -31c-23 0 -31 12 -40 23c0 50 -1 110 -2 180h-89c1 -56 2 -98 2 -125c1 -24 0 -40 -1 -47c-3 -21 -11 -31 -25 -31c-23 0 -32 14 -41 23l-3 179h-105l5 -620l105 54l-2 293h1
c15 -16 35 -24 60 -24c40 0 65 15 75 45c19 -29 47 -43 82 -43s60 13 74 38c13 23 19 52 19 86z" />
    <glyph glyph-name="extendedarabicindicdigittwo" unicode="&#x6f2;" horiz-adv-x="480" 
d="M414 533v87h-152c-68 0 -117 -14 -147 -42c-33 -29 -49 -78 -48 -146l6 -432l104 53c-3 212 -4 320 -4 324c-1 59 9 99 28 122s56 34 110 34h103z" />
    <glyph glyph-name="extendedarabicindicdigitone" unicode="&#x6f1;" horiz-adv-x="240" 
d="M174 51l-4 568h-104l5 -619z" />
    <glyph glyph-name="extendedarabicindicdigitzero" unicode="&#x6f0;" horiz-adv-x="295" 
d="M207 119v138l-119 -52v-138z" />
    <glyph glyph-name="superscriptalef" unicode="&#x670;" 
d="M23 714h44v204h-44v-204z" />
    <glyph glyph-name="maddaabove" unicode="&#x653;" 
d="M271 795h-39c-2 -23 -15 -35 -39 -35c-8 0 -24 5 -49 14c-24 9 -44 14 -59 14c-39 0 -66 -35 -71 -80h36c4 23 16 34 35 34c10 0 27 -5 51 -14s43 -13 57 -13c22 0 40 8 55 25c13 13 20 32 23 55z" />
    <glyph glyph-name="hamzaabove" unicode="&#x654;" 
d="M206 708v49h-33c-26 0 -39 10 -38 29c1 15 7 22 20 21c9 -1 17 -5 25 -13l24 37c-15 19 -32 28 -53 28c-37 0 -66 -31 -66 -71c0 -12 3 -22 9 -31h-43l-23 -49h178z" />
    <glyph glyph-name="hamzabelow" unicode="&#x655;" 
d="M206 -209v49h-33c-26 0 -39 10 -38 29c1 15 7 22 20 21c9 -1 17 -5 25 -13l24 37c-15 19 -32 28 -53 28c-37 0 -66 -31 -66 -71c0 -12 3 -22 9 -31h-43l-23 -49h178z" />
    <glyph glyph-name="zerowidthnobreakspace" unicode="&#xfeff;" 
 />
    <glyph glyph-name="_246" 
 />
    <glyph glyph-name="at" unicode="*" horiz-adv-x="479" 
d="M387 145v50l-118 -11l67 95l-45 29l-51 -110l-49 110l-50 -30l68 -95l-117 12v-52l117 8l-66 -97l48 -29l49 109l52 -104l50 24l-70 98z" />
    </font>
</defs>
</svg>
